<?xml version="1.0" encoding="utf-8"?>
<!-- Generator: Adobe Illustrator 25.2.1, SVG Export Plug-In . SVG Version: 6.00 Build 0)  -->
<svg version="1.1" id="Camada_1" xmlns="http://www.w3.org/2000/svg" xmlns:xlink="http://www.w3.org/1999/xlink" x="0px" y="0px"
	 viewBox="0 0 2290 2310" style="enable-background:new 0 0 2290 2310;" xml:space="preserve">
<style type="text/css">
	.st0{fill-rule:evenodd;clip-rule:evenodd;fill:#C2C7D1;}
	.st1{fill-rule:evenodd;clip-rule:evenodd;fill:url(#SVGID_1_);}
	.st2{opacity:0.3;clip-path:url(#SVGID_4_);}
	.st3{fill-rule:evenodd;clip-rule:evenodd;}
	.st4{opacity:0.3;clip-path:url(#SVGID_7_);}
	.st5{fill-rule:evenodd;clip-rule:evenodd;fill:#FFFFFF;}
	.st6{clip-path:url(#SVGID_7_);}
	.st7{fill:#333333;}
	.st8{fill:#FFFFFF;}
	.st9{opacity:0.7;}
	.st10{fill-rule:evenodd;clip-rule:evenodd;fill:url(#SVGID_8_);}
	.st11{fill-rule:evenodd;clip-rule:evenodd;fill:url(#SVGID_9_);}
	.st12{clip-path:url(#SVGID_11_);}
	.st13{opacity:0.4;clip-path:url(#SVGID_14_);}
	.st14{fill-rule:evenodd;clip-rule:evenodd;fill:url(#SVGID_15_);}
	.st15{opacity:0.5;clip-path:url(#SVGID_14_);}
	.st16{opacity:0.5;clip-path:url(#SVGID_18_);}
	.st17{fill-rule:evenodd;clip-rule:evenodd;fill:url(#SVGID_19_);}
	.st18{clip-path:url(#SVGID_22_);fill-rule:evenodd;clip-rule:evenodd;fill:url(#SVGID_23_);}
	.st19{opacity:0.5;clip-path:url(#SVGID_22_);}
	.st20{fill-rule:evenodd;clip-rule:evenodd;fill:#5E1412;}
	.st21{clip-path:url(#SVGID_25_);fill-rule:evenodd;clip-rule:evenodd;fill:url(#SVGID_26_);}
	.st22{clip-path:url(#SVGID_25_);fill-rule:evenodd;clip-rule:evenodd;fill:url(#SVGID_27_);}
	.st23{fill:url(#SVGID_28_);}
	.st24{fill:url(#SVGID_29_);}
	.st25{fill:url(#SVGID_30_);}
	.st26{fill:url(#SVGID_31_);}
	.st27{fill:url(#SVGID_32_);}
	.st28{fill:url(#SVGID_33_);}
	.st29{fill:url(#SVGID_34_);}
	.st30{fill:url(#SVGID_35_);}
	.st31{opacity:0.8;}
	.st32{fill:#DBDCDE;}
	.st33{fill:url(#SVGID_36_);}
	.st34{enable-background:new    ;}
	.st35{clip-path:url(#SVGID_38_);}
	.st36{clip-path:url(#SVGID_40_);}
	.st37{clip-path:url(#SVGID_42_);}
	.st38{fill:#949BAB;}
	.st39{clip-path:url(#SVGID_44_);}
	.st40{clip-path:url(#SVGID_46_);}
	.st41{clip-path:url(#SVGID_48_);}
	.st42{clip-path:url(#SVGID_50_);}
	.st43{clip-path:url(#SVGID_52_);}
	.st44{fill-rule:evenodd;clip-rule:evenodd;fill:url(#SVGID_53_);}
	.st45{fill-rule:evenodd;clip-rule:evenodd;fill:#F0806B;}
	.st46{clip-path:url(#SVGID_55_);fill-rule:evenodd;clip-rule:evenodd;fill:url(#SVGID_56_);}
	.st47{clip-path:url(#SVGID_55_);}
	.st48{fill-rule:evenodd;clip-rule:evenodd;fill:#F5D3B3;}
	.st49{fill-rule:evenodd;clip-rule:evenodd;fill:#F5BF9B;}
	.st50{clip-path:url(#SVGID_58_);}
	.st51{fill-rule:evenodd;clip-rule:evenodd;fill:url(#SVGID_59_);}
	.st52{opacity:0.5;fill-rule:evenodd;clip-rule:evenodd;fill:url(#SVGID_60_);}
	.st53{fill-rule:evenodd;clip-rule:evenodd;fill:#190B17;}
	.st54{opacity:0.5;clip-path:url(#SVGID_62_);}
	.st55{clip-path:url(#SVGID_62_);fill-rule:evenodd;clip-rule:evenodd;fill:url(#SVGID_63_);}
	.st56{clip-path:url(#SVGID_62_);}
	.st57{fill-rule:evenodd;clip-rule:evenodd;fill:#7C4329;}
	.st58{fill-rule:evenodd;clip-rule:evenodd;fill:#B28366;}
	.st59{fill-rule:evenodd;clip-rule:evenodd;fill:#2C2020;}
	.st60{clip-path:url(#SVGID_65_);}
	.st61{fill-rule:evenodd;clip-rule:evenodd;fill:url(#SVGID_66_);}
	.st62{clip-path:url(#SVGID_68_);}
	.st63{opacity:0.4;}
	.st64{opacity:0.6;fill-rule:evenodd;clip-rule:evenodd;fill:url(#SVGID_69_);}
	.st65{opacity:0.5;}
	.st66{fill-rule:evenodd;clip-rule:evenodd;fill:#352031;}
	.st67{clip-path:url(#SVGID_71_);}
	.st68{opacity:0.4;fill-rule:evenodd;clip-rule:evenodd;}
	.st69{opacity:0.6;fill-rule:evenodd;clip-rule:evenodd;fill:url(#SVGID_72_);}
	.st70{opacity:0.4;clip-path:url(#SVGID_74_);}
	.st71{fill-rule:evenodd;clip-rule:evenodd;fill:#492D45;}
	.st72{opacity:0.6;clip-path:url(#SVGID_74_);fill-rule:evenodd;clip-rule:evenodd;fill:url(#SVGID_75_);}
	.st73{opacity:0.6;clip-path:url(#SVGID_74_);fill-rule:evenodd;clip-rule:evenodd;fill:url(#SVGID_76_);}
	.st74{opacity:0.6;clip-path:url(#SVGID_74_);fill-rule:evenodd;clip-rule:evenodd;fill:url(#SVGID_77_);}
	.st75{opacity:0.6;clip-path:url(#SVGID_74_);fill-rule:evenodd;clip-rule:evenodd;fill:url(#SVGID_78_);}
	.st76{opacity:0.6;clip-path:url(#SVGID_74_);fill-rule:evenodd;clip-rule:evenodd;fill:url(#SVGID_79_);}
	.st77{opacity:0.6;clip-path:url(#SVGID_74_);fill-rule:evenodd;clip-rule:evenodd;fill:url(#SVGID_80_);}
	.st78{opacity:0.6;clip-path:url(#SVGID_74_);fill-rule:evenodd;clip-rule:evenodd;fill:url(#SVGID_81_);}
	.st79{clip-path:url(#SVGID_74_);}
	.st80{fill-rule:evenodd;clip-rule:evenodd;fill:#2F1A2B;}
	.st81{clip-path:url(#SVGID_83_);fill-rule:evenodd;clip-rule:evenodd;fill:url(#SVGID_84_);}
	.st82{clip-path:url(#SVGID_83_);}
	.st83{fill-rule:evenodd;clip-rule:evenodd;fill:#ECB682;}
	.st84{opacity:0.5;clip-path:url(#SVGID_86_);fill-rule:evenodd;clip-rule:evenodd;fill:url(#SVGID_87_);}
	.st85{opacity:0.5;clip-path:url(#SVGID_86_);fill-rule:evenodd;clip-rule:evenodd;fill:url(#SVGID_88_);}
	.st86{clip-path:url(#SVGID_90_);}
	.st87{fill-rule:evenodd;clip-rule:evenodd;fill:#9B1F24;}
	.st88{fill-rule:evenodd;clip-rule:evenodd;fill:#B44D44;}
	.st89{fill-rule:evenodd;clip-rule:evenodd;fill:#6C2213;}
	.st90{opacity:0.6;clip-path:url(#SVGID_93_);}
	.st91{opacity:0.6;clip-path:url(#SVGID_93_);fill-rule:evenodd;clip-rule:evenodd;fill:url(#SVGID_94_);}
	.st92{opacity:0.5;clip-path:url(#SVGID_93_);}
	.st93{fill-rule:evenodd;clip-rule:evenodd;fill:url(#SVGID_95_);}
	.st94{fill-rule:evenodd;clip-rule:evenodd;fill:url(#SVGID_96_);}
	.st95{fill-rule:evenodd;clip-rule:evenodd;fill:#FEF7E8;}
	.st96{fill-rule:evenodd;clip-rule:evenodd;fill:#5A2210;}
	.st97{opacity:0.5;clip-path:url(#SVGID_98_);fill-rule:evenodd;clip-rule:evenodd;fill:url(#SVGID_99_);}
	.st98{fill:url(#SVGID_100_);}
	.st99{opacity:0.69;}
	.st100{fill-rule:evenodd;clip-rule:evenodd;fill:url(#SVGID_101_);}
	.st101{fill-rule:evenodd;clip-rule:evenodd;fill:url(#SVGID_102_);}
	.st102{fill-rule:evenodd;clip-rule:evenodd;fill:url(#SVGID_103_);}
	.st103{fill:#FA8A97;}
	.st104{fill:#F3D09E;}
</style>
<g>
	<g>
		<path class="st0" d="M887.2,2158.7c344.9,0,624.5,20.1,624.5,44.9c0,24.8-279.6,44.9-624.5,44.9c-344.9,0-624.5-20.1-624.5-44.9
			C262.8,2178.8,542.3,2158.7,887.2,2158.7z"/>
	</g>
	<g>
		<linearGradient id="SVGID_1_" gradientUnits="userSpaceOnUse" x1="2141.6702" y1="1684.4827" x2="2141.6702" y2="95.5324">
			<stop  offset="0" style="stop-color:#FFE0A3"/>
			<stop  offset="1" style="stop-color:#E34764"/>
		</linearGradient>
		<path class="st1" d="M2156,594.7c0.4-0.1,7.4-2,12.3,0c15.9,6.4,12.9,42.9,10.2,64.5c-3,24.6-6.2,48.4-8.2,70.6
			c-2.5,28.5-2.3,49.1-5.1,73.7c-2.7,23.8-8.6,52.8-25.6,53.2c-19.5,0.5-28.5-32.9-32.8-55.3c-4.5-24.1-4.9-57.2-3.1-81.9
			c2.5-34.9,11.7-77.4,27.6-103.4C2136.8,607.3,2145.4,596.8,2156,594.7z"/>
		<g>
			<defs>
				<path id="SVGID_2_" d="M615.4,1267.2c26.5-5.5,41.4,13.3,56.3,26.6c3,2.7,6.5,4.5,9.2,7.2c15.8,15.3,31.1,32.3,48.1,48.1
					c2.6,2.4,5.5,4.6,8.2,7.2c0.6,2.6,2.9,2.9,4.1,4.1c6,5.6,12.7,14.3,19.4,20.5c1.5,1.3,3.6,1.6,5.1,3.1
					c11.2,10.8,26.5,21.4,39.9,31.7c5.9,4.6,11.6,9.8,17.4,14.3c28.6,22.1,63.5,44.7,95.2,64.5c38.4,23.9,82.8,46,129,63.5
					c30.9,11.7,62.8,21.4,100.3,27.6c39,6.5,72.9,6.9,110.6,17.4c14.1,3.9,37.4,11,38.9,24.6c1.3,11.7-8.3,22.4-16.4,28.7
					c-6.4,4.9-14.3,8.5-23.5,11.3c-38.8,11.5-98.3,5.6-142.3-1c-26.1-3.9-51.3-10.6-74.7-17.4c-38.6-11.2-76.6-23.3-111.6-39.9
					c-26.8-12.8-52.9-27.4-79.8-40.9c-29.6-14.9-54-28.9-77.8-44c-48.3-30.6-93.5-66.1-133.1-109.5c-1.3-1.5-1.6-3.5-3.1-5.1
					c-2.3-2.6-4.2-4.7-7.2-8.2c-13.1-15.3-30.6-39-37.9-59.4C579,1311.7,585,1273.5,615.4,1267.2z"/>
			</defs>
			<linearGradient id="SVGID_3_" gradientUnits="userSpaceOnUse" x1="941.0529" y1="1684.4742" x2="941.0529" y2="95.5266">
				<stop  offset="0" style="stop-color:#FFE0A3"/>
				<stop  offset="1" style="stop-color:#E34764"/>
			</linearGradient>
			<use xlink:href="#SVGID_2_"  style="overflow:visible;fill-rule:evenodd;clip-rule:evenodd;fill:url(#SVGID_3_);"/>
			<clipPath id="SVGID_4_">
				<use xlink:href="#SVGID_2_"  style="overflow:visible;"/>
			</clipPath>
			<g class="st2">
				<path class="st3" d="M2783.2,655.1c0,90.8,0,181.5,0,272.3c-44.4,70.4-97.7,131.9-152.5,190.4c-92.5,98.6-194.9,185.9-310.2,262
					c-91.2,60.2-191.7,111.1-302,155.6c-110.1,44.4-233.4,75.2-366.4,92.1c-135.1,17.2-298,15.5-428.9-4.1
					c-81.1-12.2-162.4-29.7-234.4-52.2c-43.8-13.7-86.3-29.4-125.9-46.1c-105-44.2-209.5-94.6-305-152.5c-22.7-13.8-47.5-28-69.6-45
					c-10.4-8-20.7-17.3-30.7-26.6c-10.4-9.6-24.3-20.1-30.7-29.7c-18.2-19.9-39.2-40.6-37.9-73.7c1.3-32.2,26.3-55,54.2-60.4
					c27.9-5.4,59.9,5.8,86,16.4c25.4,10.4,53.7,22,73.7,31.7c23.6,11.4,47.4,22.9,71.7,33.8c61.7,27.6,122.4,54.3,184.2,78.8
					c63.9,25.4,130.4,45.8,199.6,64.5c110.9,29.9,233.2,49.1,372.6,49.1c136,0,260.9-18.3,371.6-50.2
					c109.6-31.5,209.4-71.6,298.9-121.8c44.9-25.2,87.6-53.3,129-81.9c41.3-28.6,79.6-60.9,116.7-94.2
					c55.3-49.7,109.3-103,158.7-157.6c16.7-18.5,33-37.1,50.2-55.3c50.2-53.3,101.4-109.1,161.7-154.6
					C2736.3,682,2761.9,663.1,2783.2,655.1z"/>
			</g>
		</g>
	</g>
	<g>
		<defs>
			<path id="SVGID_5_" d="M1668.7,75.2c118.5-5.6,237.1,21.3,309.1,72.7c74.1,52.9,116,141.9,128,254.9
				c12.5,118.8-12.4,238-21.5,351.1c-4.9,60.5,13.5,111.2,23.5,165.8c9.8,53.3,17.5,114.7,12.3,175c-9.9,115-62.1,192.4-130,252.8
				c-68.4,60.9-153,102.1-247.7,135.1c-96.9,33.8-201,58.5-322.4,60.4c-123.4,1.9-229.3-15-329.6-51.2
				c-183.3-66.1-332.6-183.6-436.1-330.6c-52.9-75.2-103.5-160.7-98.3-284.6c2.5-60.1,16.7-111.7,33.8-157.6
				c48.9-131.7,138.9-256,264.1-310.2c23.4-10.1,48.3-17.5,75.7-20.5c27.7-3,57.6-0.9,90.1-3.1c114.5-7.8,225.4-33.9,312.2-70.6
				c45.3-19.2,79.5-45.8,108.5-82.9c41.6-53.1,73.5-115.6,145.4-142.3C1608.8,80.9,1639.5,76.6,1668.7,75.2z"/>
		</defs>
		<linearGradient id="SVGID_6_" gradientUnits="userSpaceOnUse" x1="1338.7616" y1="1684.4744" x2="1338.7616" y2="95.5331">
			<stop  offset="0" style="stop-color:#FFE0A3"/>
			<stop  offset="1" style="stop-color:#E34764"/>
		</linearGradient>
		<use xlink:href="#SVGID_5_"  style="overflow:visible;fill-rule:evenodd;clip-rule:evenodd;fill:url(#SVGID_6_);"/>
		<clipPath id="SVGID_7_">
			<use xlink:href="#SVGID_5_"  style="overflow:visible;"/>
		</clipPath>
		<g class="st4">
			<path class="st5" d="M1780-409.4c2.8,6.1,7.2,3.6,12.3,6.1c4.3,2.1,8.3,7,12.3,11.3c2.4,2.6,6,5.3,8.2,8.2
				c4.8,6.3,7.8,13.9,13.3,20.5c11.3,13.4,20.9,25.2,27.6,39.9c14.4,31.3,20.6,69.3,27.6,107.5c7.2,39.1,11.3,81.2,11.3,123.9
				c0,221.4-60.9,388.3-172,501.6c-22.4,22.9-45.7,43.8-72.7,62.4c-26.4,18.3-55.8,33.3-88,47.1c-62.7,26.9-138.8,43.4-228.3,40.9
				c-43.8-1.2-82.8-7.6-118.7-16.4c-35.6-8.7-66.1-22.1-97.2-37.9c-27.6-14-57-30.7-75.7-59.4c-8.1-12.4-18.4-22.9-27.6-39.9
				c-3.4-6.3-6.7-14.7-11.3-22.5c-3.9-6.7-9.7-12.5-8.2-24.6c2.3-18.9,29.3-31.9,47.1-16.4c4.6,4,7.6,9.2,13.3,13.3
				c5,3.6,10.7,6.7,16.4,10.2c5.8,3.6,11.7,8.3,16.4,10.2c7.1,2.9,14.1,3.3,20.5,6.1c16.9,7.7,35.2,19.3,53.2,26.6
				c26.7,10.8,54.3,16.1,86,21.5c30.2,5.1,63.7,8.2,98.3,8.2c94.9,0,170.1-27,228.3-65.5c20.3-13.5,41.3-29.7,58.3-48.1
				c4.2-4.6,9.2-8.7,13.3-13.3c8.1-10.7,16.7-21.4,23.5-30.7c22.2-30.2,40.9-65.4,56.3-103.4c39.8-97.9,52.8-240.6,39.9-376.7
				c-4.6-48.1-18.6-94.8-7.2-142.3c0.9-3.7,2.5-6.9,3.1-10.2c0.7-4.2,0.5-7.9,1-12.3c1.5-12.5,4-26.1,11.3-35.8
				c0.6-0.8,3-1.7,4.1-3.1C1779-405.9,1776.8-410.1,1780-409.4z"/>
			<path class="st5" d="M2312.3,58.4c6.1,17.5,7.4,29.5,12.3,45c1.9,6,8.6,9.6,14.3,15.4c14.5,14.4,24,34.5,31.7,56.3
				c10,28.4,16.5,63.5,21.5,96.2c11.7,76.9-2.9,143.5-21.5,204.7c-26.5,87.3-56.9,167.5-94.2,243.6c-36.6,74.9-79.4,145.4-128,209.8
				c-6.2,8.2-12.5,16.1-19.4,24.6c-31.9,38.5-68.4,78.7-106.5,112.6c-1.4,1.3-3.8,1.8-5.1,3.1c-32.4,31.1-73.3,59.4-113.6,83.9
				c-3.1,1.9-6,3.2-9.2,5.1c-2.8,1.7-5.3,4.5-8.2,6.1c-24.9,14.2-51.7,27-78.8,38.9c-27.4,12-56.2,21.9-86,30.7
				c-62.4,18.6-127.8,31.7-203.7,31.7c-133.8,0-243.8-29.3-341.9-68.6c-40.6-16.2-80.3-37.2-117.7-58.3
				c-21.7-12.3-42.3-25.5-62.4-39.9c-1.4-1-2.8-2.2-4.1-3.1c-9.8-6.9-21.9-16.3-32.8-23.5c-12.5-8.3-25.5-20.7-37.9-30.7
				c-32.5-26.4-62.2-54.4-93.1-82.9c-27.4-25.2-54.2-52.5-81.9-78.8c-22-20.9-46.6-41.8-71.7-60.4c-41.4-30.7-105.9-57.8-181.2-51.2
				c-17.5,1.5-35.7,4.5-54.3,4.1c-18.5-0.4-37.4,1.7-55.3-1c-28.5-4.4-47.4-19.9-57.3-40.9c-11.2-23.9-6.9-54.4,7.2-75.8
				c13.3-20.2,36.1-35.6,55.3-48.1c21.9-14.3,45.7-22.6,73.7-29.7c27.7-7.1,57.6-13.4,87-16.4c33.2-3.3,63.2-3,97.2,0
				c60.2,5.3,110.8,26.1,158.7,48.1c49.2,22.6,90.9,50.4,129,76.8c20,13.8,39.5,28.8,59.4,44c43.3,33.1,88.7,67.3,135.1,98.3
				c15.2,10.1,31.4,19,48.1,28.7c43.1,25.1,89.5,48.6,140.2,66.5c51.2,18.1,107.2,33.9,168.9,36.9c101.8,4.8,183.7-25.7,247.7-62.4
				c11.2-6.4,22.4-12.4,32.8-19.4c8.6-5.8,16.9-12.6,25.6-19.4c1.2-0.9,3-1.2,4.1-2c19.1-15.4,36.1-33,53.2-50.2
				c26.2-26.2,48.7-54.3,70.6-85c1.8-2.6,4.4-4.7,6.1-7.2c1.8-2.5,2.4-5.7,4.1-8.2c1.8-2.6,4.5-4.6,6.1-7.2
				c41.4-64.1,77.9-135.5,107.5-213.9c9.5-25.2,18.3-50.5,26.6-76.8c16.4-52.1,32.2-105.1,56.3-150.5c5.8-11,13.6-21.3,20.5-31.7
				c3.5-5.3,6.6-10.4,10.2-15.3c24.6-33.3,50.7-70.4,85-95.2c5.4-3.9,10.9-6.6,16.4-9.2c5.9-2.8,11.9-4.3,18.4-7.2
				c8.4-3.7,13.5-13.6,19.4-21.5c4.3-5.8,8.5-11.1,13.3-17.4C2310.9,59.6,2311.1,58.5,2312.3,58.4z"/>
		</g>
		<g class="st6">
			<path class="st7" d="M1022.1,52.7c31.4,0.1,64.4,25.8,73.4,57.2l183.9,643.2c9,31.4-9.3,57-40.7,57L742,808.7
				c-31.4-0.1-64.4-25.8-73.4-57.2L484.8,108.4c-9-31.4,9.3-57,40.7-57L1022.1,52.7z"/>
		</g>
		<g class="st6">
			<g>
				<g>
					<path class="st8" d="M2354.9,652.5h-491.4c-35,0-63.5-28.5-63.5-63.5V195.9c0-35,28.5-63.5,63.5-63.5h491.4
						c35,0,63.5,28.5,63.5,63.5V589C2418.4,624,2389.9,652.5,2354.9,652.5z M1863.5,157c-21.4,0-38.9,17.5-38.9,38.9V589
						c0,21.5,17.5,38.9,38.9,38.9h491.4c21.4,0,38.9-17.5,38.9-38.9V195.9c0-21.5-17.5-38.9-38.9-38.9H1863.5z"/>
				</g>
			</g>
			<g>
				<g>
					<path class="st5" d="M459,1169.5c0-22.5,18.4-40.9,40.9-40.9h511.9c22.5,0,41,18.4,41,40.9v59.4c0,22.5-18.4,41-41,41H499.9
						c-22.5,0-40.9-18.4-40.9-41V1169.5z"/>
					<g>
						<path class="st8" d="M1011.8,1276.4H499.9c-26.2,0-47.5-21.3-47.5-47.5v-59.4c0-26.2,21.3-47.5,47.5-47.5h511.9
							c26.2,0,47.5,21.3,47.5,47.5v59.4C1059.3,1255.1,1038,1276.4,1011.8,1276.4z M499.9,1135.1c-19,0-34.4,15.4-34.4,34.4v59.4
							c0,19,15.4,34.4,34.4,34.4h511.9c19,0,34.4-15.4,34.4-34.4v-59.4c0-19-15.4-34.4-34.4-34.4H499.9z"/>
					</g>
				</g>
				<g>
					<path class="st3" d="M1528.8,964.9c0-34.1,27.9-62,62-62H1845c34.1,0,62,27.9,62,62v112.5c0,34.1-27.9,62-62,62h-254.2
						c-34.1,0-62-27.9-62-62V964.9z"/>
					<g>
						<path d="M1845,1146.2h-254.2c-37.9,0-68.7-30.8-68.7-68.7V964.9c0-37.9,30.8-68.7,68.7-68.7H1845c37.9,0,68.7,30.8,68.7,68.7
							v112.5C1913.7,1115.4,1882.9,1146.2,1845,1146.2z M1590.8,909.7c-30.4,0-55.2,24.8-55.2,55.2v112.5
							c0,30.4,24.8,55.2,55.2,55.2H1845c30.4,0,55.2-24.8,55.2-55.2V964.9c0-30.4-24.8-55.2-55.2-55.2H1590.8z"/>
					</g>
				</g>
				<g class="st9">
					<g>
						<rect x="551.7" y="1159.6" class="st3" width="468.1" height="15.8"/>
						<path d="M1019.9,1180.9H551.7c-3,0-5.5-2.4-5.5-5.5v-15.8c0-3,2.5-5.5,5.5-5.5h468.1c3,0,5.5,2.4,5.5,5.5v15.8
							C1025.4,1178.5,1022.9,1180.9,1019.9,1180.9z M557.2,1170h457.2v-4.9H557.2V1170z"/>
					</g>
					<g>
						<rect x="551.7" y="1222.9" class="st3" width="468.1" height="15.8"/>
						<path d="M1019.9,1244.2H551.7c-3,0-5.5-2.5-5.5-5.5v-15.8c0-3,2.5-5.5,5.5-5.5h468.1c3,0,5.5,2.5,5.5,5.5v15.8
							C1025.4,1241.8,1022.9,1244.2,1019.9,1244.2z M557.2,1233.3h457.2v-4.9H557.2V1233.3z"/>
					</g>
				</g>
			</g>
		</g>
		<g class="st4">
			<path class="st3" d="M2783.2,655.1c0,90.8,0,181.5,0,272.3c-44.4,70.4-97.7,131.9-152.5,190.4c-92.5,98.6-194.9,185.9-310.2,262
				c-91.2,60.2-191.7,111.1-302,155.6c-110.1,44.4-233.4,75.2-366.4,92.1c-135.1,17.2-298,15.5-428.9-4.1
				c-81.1-12.2-162.4-29.7-234.4-52.2c-43.8-13.7-86.3-29.4-125.9-46.1c-105-44.2-209.5-94.6-305-152.5c-22.7-13.8-47.5-28-69.6-45
				c-10.4-8-20.7-17.3-30.7-26.6c-10.4-9.6-24.3-20.1-30.7-29.7c-18.2-19.9-39.2-40.6-37.9-73.7c1.3-32.2,26.3-55,54.2-60.4
				c27.9-5.4,59.9,5.8,86,16.4c25.4,10.4,53.7,22,73.7,31.7c23.6,11.4,47.4,22.9,71.7,33.8c61.7,27.6,122.4,54.3,184.2,78.8
				c63.9,25.4,130.4,45.8,199.6,64.5c110.9,29.9,233.2,49.1,372.6,49.1c136,0,260.9-18.3,371.6-50.2
				c109.6-31.5,209.4-71.6,298.9-121.8c44.9-25.2,87.6-53.3,129-81.9c41.3-28.6,79.6-60.9,116.7-94.2
				c55.3-49.7,109.3-103,158.7-157.6c16.7-18.5,33-37.1,50.2-55.3c50.2-53.3,101.4-109.1,161.7-154.6
				C2736.3,682,2761.9,663.1,2783.2,655.1z"/>
		</g>
	</g>
	<linearGradient id="SVGID_8_" gradientUnits="userSpaceOnUse" x1="404.6266" y1="1819.9979" x2="404.6266" y2="649.4162">
		<stop  offset="0" style="stop-color:#FFE0A3"/>
		<stop  offset="1" style="stop-color:#E34764"/>
	</linearGradient>
	<path class="st10" d="M408.9,1113.3c18.9-4.2,28.2,12.8,26.4,36.2c-1.4,18.9-11,42.5-15.1,64.1c-3.9,20.5,0.3,61.2-15.8,63.3
		c-14.4,1.9-22.4-16.9-25.6-30.9c-10.4-45.2-6.4-115.6,27-131.7C406.3,1114.1,408.3,1113.5,408.9,1113.3z"/>
	<radialGradient id="SVGID_9_" cx="1463.4183" cy="1227.3174" r="714.543" gradientUnits="userSpaceOnUse">
		<stop  offset="0" style="stop-color:#7FC385"/>
		<stop  offset="0.2672" style="stop-color:#7EBF89"/>
		<stop  offset="0.5397" style="stop-color:#7AB394"/>
		<stop  offset="0.8136" style="stop-color:#739EA7"/>
		<stop  offset="1" style="stop-color:#6D8CB8"/>
	</radialGradient>
	<path class="st11" d="M1190.2,1420.7c5.5-12.7,26.2-12.5,40-9.1c4.4-72.2,19.2-155.7,67.9-186.3c17.8-11.2,41.8-10.8,60.3-0.8
		c8.5,4.6,19.8,10.9,18.9,21.9c-10.9,2.3-12.4-7.1-18.9-10.6c-13-6.9-34.7-9.5-48.3-3c-51.4,24.6-62.8,117.6-67.1,183.2
		c58.9,28.6,83.4,91.5,91.3,171.2c20.2,5.4,41.1,15.2,55,28.7c10.7,10.4,22.7,24,21.1,40.7c-4.1,0.4-5.3-2.3-6-5.3
		c-8,4.2-13.4-8.9-18.9-15.8c-12.6-16.2-27.6-28.1-49.8-33.2c3.2,38.9,3,83.3,0,124.4c-2.2,29.2-3.3,60.7-8.3,88.2
		c-1.4,7.6-2.8,18.1-9.8,21.1c-4.6-18.5-1.6-38.3,0-58.1c4.7-57,9.1-119.6,3-178.7c-16.3-0.9-28.8,1.2-40.7,6.8
		c-8.6,4-25.3,12-27.1,21.1c-1.1,5.3,1.5,15,2.3,22.6c4,39.2,8.2,77.4,11.3,116.1c1.3,15.6,4.9,32.2-3.8,44.5
		c-11-6.7-10.2-22.7-11.3-36.2c-3.7-44.1-7.9-90.6-12.1-132c-22.7,24.6-27.9,68.5-30.2,117.6c-0.5,10.8,2.3,42.1-8.3,41.5
		c-10.7-0.7-5.8-39.6-5.3-49.8c2.3-49.8,10.6-85.3,30.2-114.6c2.7-4.1,11-11.3,12.1-17.3c1-5.9-1.7-14.8-2.3-22.6
		c-4.2-55.9-8-115.9-6-170.4C1220.9,1418.8,1193.8,1429.6,1190.2,1420.7z M1250.5,1608.5c17.5-12.5,38.7-25.1,68.6-22.6
		c-7.2-69.5-26.9-126.4-76.9-153.1C1240.6,1493.6,1245.6,1551.9,1250.5,1608.5z"/>
	<g>
		<defs>
			<path id="SVGID_10_" d="M1405,1792.9c-17.9,128.4-33.2,259.3-51.3,387.6c-53.8,0-107.6,0-161.4,0
				c-18-128.3-33.4-259.2-51.3-387.6c0-1,0-2,0-3c87.7,0.5,177.5-1,263.9,0.8C1405,1791.4,1405,1792.2,1405,1792.9z"/>
		</defs>
		<use xlink:href="#SVGID_10_"  style="overflow:visible;fill-rule:evenodd;clip-rule:evenodd;fill:#C3C7D2;"/>
		<clipPath id="SVGID_11_">
			<use xlink:href="#SVGID_10_"  style="overflow:visible;"/>
		</clipPath>
		<g class="st12">
			<path class="st3" d="M1083.3,1809.6c150.2,2.3,308.1-3.1,457.7,0c3,0.1,10.7-2.3,11.3,3.8c-7.4,5.5-18,3-26.4,3
				c-147.3,0-296.6,0-442.7,0C1083.3,1814.1,1083.3,1811.8,1083.3,1809.6z"/>
			<path class="st3" d="M1083.3,1828.4c141.6,0,288.8,0,429.8,0c9.2,0,21.8-2.8,25.6,3.8c-1.6,5.1-8.2,3-11.3,3
				c-147.7,3.1-297.6-2.3-444.2,0C1083.3,1833,1083.3,1830.7,1083.3,1828.4z"/>
		</g>
	</g>
	<g>
		<defs>
			<path id="SVGID_12_" d="M1592.6,1687.8c0,5.5,0,11.1,0,16.6c1.8,10.1-8.7,3.3-13.6,1.5c-12.2-4.6-26.8-11.1-40-12.1
				c-29.5-2.2-50.6,6.1-65.6,15.8c48.1-5.8,95.9-0.5,115.4,26.4c-3.4,13.7-5.7,28.5-12.1,39.2c-9.1-31.2-41.8-38.6-79.9-40.7
				c19.4,22.9,61.6,29.4,70.9,64.9c-8.7,13.9-15.5,29.8-27.1,40.7c-5.8,0-11.6,0-17.3,0c-2-13.4-5-25.7-8.3-37.7
				c-8.9,8.2-8.8,25.4-15.1,36.2c-6.6-0.9-14.2-0.9-19.6-3c-3.1-21.6-9.8-47.9-8.3-72.4c0.3-5,2.5-8.4,0-12.8
				c-39.1-14.2-22.1,53.1-30.2,79.2c-18.8-5.3-39.7-8.5-56.6-15.8c6.3-33.2,7.7-69.7,27.2-89.7c4.7-4.9,12-6.1,14.3-13.6
				c-34.7-12.3-44.2,25-54.3,48.3c-7,16.2-12.9,32.7-19.6,45.2c-20.1-8-41.3-15-58.8-25.6c31-41.2,45.8-98.4,116.1-100.3
				c-14.2-3.4-29.3-13.9-44.5-9.8c-11.5,3.1-29.1,24.5-37,33.2c-20,21.9-41.4,40.7-55.8,66.4c-22.9-14.9-52.3-30.1-42.2-73.2
				c11-8.8,23.9-17.6,37.7-26.4c12.8-8.1,27.8-18.7,44.5-19.6c4.1-0.2,10.5,3,13.6-1.5c-17.7-8.1-39.4-0.8-54.3,5.3
				c-16.3,6.7-30.3,17.3-42.2,23.4c8.1-17.3,23.2-31.2,40.7-44.5c18.6-14.1,39.2-32.8,71.6-29.4c23.1,2.4,44,20.4,56.6,34.7
				c1.3,1.5,2.6,5.2,5.3,4.5c0.7-27.2,2.3-51.4,14.3-70.1c8.7-13.5,31.2-31.2,46-38.5c31-15.2,67,1.3,79.2,26.4
				c-28.8-3.9-49.8,8.3-66.4,22.6c-12.4,10.7-28.4,26-25.6,43.7c10.5,6.2,19.1-3.7,25.6-9.1c20.9-16.9,44.5-32.8,87.5-26.4
				c5.3,12.8,13.9,26.3,15.8,40c-21.1-6-42,1.9-59.6,9.1c-10.9,4.5-25.5,10.9-19.6,24.9c14,2.5,27.1-4.9,40.7-8.3
				c14.1-3.6,28.5-6.9,45.2-5.3C1590.3,1661.5,1591.1,1675,1592.6,1687.8z"/>
		</defs>
		<radialGradient id="SVGID_13_" cx="1463.4182" cy="1227.3225" r="714.5363" gradientUnits="userSpaceOnUse">
			<stop  offset="0" style="stop-color:#7FC385"/>
			<stop  offset="0.2672" style="stop-color:#7EBF89"/>
			<stop  offset="0.5397" style="stop-color:#7AB394"/>
			<stop  offset="0.8136" style="stop-color:#739EA7"/>
			<stop  offset="1" style="stop-color:#6D8CB8"/>
		</radialGradient>
		<use xlink:href="#SVGID_12_"  style="overflow:visible;fill-rule:evenodd;clip-rule:evenodd;fill:url(#SVGID_13_);"/>
		<clipPath id="SVGID_14_">
			<use xlink:href="#SVGID_12_"  style="overflow:visible;"/>
		</clipPath>
		<g class="st13">
			<linearGradient id="SVGID_15_" gradientUnits="userSpaceOnUse" x1="1450.7057" y1="1692.5585" x2="1316.7861" y2="1785.8446">
				<stop  offset="0" style="stop-color:#000000"/>
				<stop  offset="0.2387" style="stop-color:#030303"/>
				<stop  offset="0.4112" style="stop-color:#0C0C0C"/>
				<stop  offset="0.5628" style="stop-color:#1C1C1C"/>
				<stop  offset="0.7024" style="stop-color:#323232"/>
				<stop  offset="0.8337" style="stop-color:#4F4F4F"/>
				<stop  offset="0.9572" style="stop-color:#727272"/>
				<stop  offset="1" style="stop-color:#808080"/>
			</linearGradient>
			<path class="st14" d="M1378.2,1609.7c2.7,1.6-3.8-8.8,2.3-9.8c6.9,0.5,9.6,8.1,12.1,12.8c19.8,38.6,40.3,72.9,69.4,104.8
				c14.9,16.4,32.8,32.4,49,50.5c16.8,18.7,31.5,36.2,31.7,67.9c0,8.6-0.6,19.7-4.5,26.4c-2.2,2.1-3.2-1.2-4.5-2.3
				c-11.2,15.7-49.6,12.4-61.8,0c-17.9,20.9-76.4,28.6-92.8,1.5c-9.9,3.2-19.6,6.4-35.4,5.3c-22.5-1.6-40.7-15.8-55-30.2
				c-13.7-13.7-25.6-26.9-40-44.5c-13.3-16.3-23-33.7-33.9-51.3c-12.2-19.6-26.3-43.2-24.1-73.9c2.4-34.2,37-59.1,72.4-42.2
				c9.3-15.3,21.5-27.8,46-27.9c5.8-10.3,12.6-19.1,25.6-20.4c22.7-2.2,35.4,18.3,43.7,32.4
				C1378.2,1609.2,1378.2,1609.4,1378.2,1609.7z"/>
		</g>
		<g class="st15">
			<path class="st3" d="M1484.1,1590.9c1.5,5.9-2.4,11.2-6.8,13.6c2.1,1.2,4.6,1.9,5.3,4.5c-7.4,7.5-15.7,25.7-27.2,27.9
				c-16.1,3.1-13.7-17.8-6.8-26.4C1456.3,1601.1,1471.3,1592,1484.1,1590.9z"/>
			<path class="st3" d="M1533.2,1639.2c-3.7,12.2-19.2,12.4-28.7,18.9c2.7,0.7,8.5-0.3,9.8,3.8c-5.7,12-37.3,10.9-23.4-8.3
				C1497.6,1644.4,1520.5,1634.9,1533.2,1639.2z"/>
			<path class="st3" d="M1307.7,1646c3.6-7.9,28.2-7.5,30.2,0C1341.2,1658.6,1310.4,1653.5,1307.7,1646z"/>
			<path class="st3" d="M1418.5,1676.9c-6.6,6.8-26.6,0.4-28.7-4.5c-15.3-5.3-21.6,11.7-33.2,7.5c-0.8-14.1,17.8-19.1,33.9-17.3
				C1401.8,1663.8,1415.8,1669.5,1418.5,1676.9z"/>
			<path class="st3" d="M1397.4,1728.2c-0.6-7.2,4-9,8.3-11.3c-1.3-1.7-3-3.1-2.3-6.8c6.1-6.7,29.1-11.6,30.2,0.8
				C1434.6,1722.3,1407.1,1732.9,1397.4,1728.2z"/>
			<path class="st3" d="M1483.4,1707.1c3.9-1.1,9.6-3.8,14.3-1.5c-1.1,8.1-19.7,14.2-28.7,9
				C1466.5,1705.1,1480.2,1699.2,1483.4,1707.1z"/>
			<path class="st3" d="M1508.3,1735.7c0.2,1.8,1.5,3.1,0,4.5c2.8,1.7,9.5,3.5,8.3,6.8c-2.9,5.7-27-3.6-27.2-9.8
				C1489.2,1729,1503.3,1731.5,1508.3,1735.7z"/>
			<path class="st3" d="M1461.5,1771.9c-0.3-0.9-1-1.6-2.3-1.5c-3.6-10.3,5.6-13.8,6-22.6c-9.8,0-9.7,13.9-14.3,16.6
				c-7.9-14.8,4.1-31.4,18.1-27.9C1483.4,1740.1,1477.2,1774,1461.5,1771.9z"/>
			<path class="st3" d="M1518.1,1817.9c-1.9,0.1-3.6,0.1-4.5-0.8c-0.9,10.4,0.5,23.1-6.8,27.1c-9.2-5.7-3-39.7,3.8-46.8
				C1519.8,1797.2,1519,1810.5,1518.1,1817.9z"/>
		</g>
	</g>
	<g>
		<defs>
			<path id="SVGID_16_" d="M1102.4,1335.1c5.5,0,11.1,0,16.6,0c44.2,7.5,64.3,39.2,76.9,78.4c43.3,10.2,75,32.1,81.4,79.2
				c0,5.8,0,11.6,0,17.3c-3.6,23-8.8,44.5-19.6,60.3c-10.6-24.6-21.4-46.8-37.7-67.9c-10.8-13.9-24.5-26.1-39.2-40
				c-5.5-5.2-20.2-16.8-23.4-2.3c-2.4,10.8,7.2,25.8,11.3,33.2c11.3,20.5,21.5,34.7,33.9,54.3c6.1,9.6,13.4,19.3,15.8,27.9
				c3.5,12.7,1.3,21.2,6.8,32.4c-14.9,11.5-35.7,17.1-59.6,19.6c13.7-37.6,3.8-99.1-11.3-126.7c-4.9-8.9-23.4-24.9-25.6-3
				c-2,19,10.8,37.6,9.1,58.1c-2.3,27.3-15.6,50.2-20.4,73.9c-29.7-0.1-60.2-0.9-82.9,6c1-10.2,6.9-30,3.7-43.5
				c-1.1-4.5-4.5-10.1-7.3-10.1c-2.9,0-5.8,7.1-7.4,12.3c-1.6,5.3-2.6,11.1-4.1,16.5c-3,10.7-6.7,21.7-8.3,32.4
				c-13.2,7.1-25.5,15.2-33.9,27.2c-10.1-29.6-17.2-61.5-20.4-97.3c14.8-7.7,31-16.2,49-21.9c11.6-3.7,24.2-6,35.6-9.9
				c6.2-2.1,17-5,17.2-8.2c0.1-2.7-2.8-5.4-5.3-7c-11.5-7.3-37-0.7-52,2.5c-17.3,3.6-32.7,8.1-45.2,11.3c0-3.5,0-7,0-10.6
				c2.4-21.5,4.3-43.5,11.3-60.3c25-5.6,49.9-12.6,79.2-10.6c23.6,1.6,46.5,16.3,68.6,9.8c-1.6-12.1-14.2-14.9-24.1-18.1
				c-32-10.3-71.5-15.2-108.6-18.1c6.3-11.3,10.9-19.7,18.9-30.2c3.6-4.8,17.7-24.3,24.1-24.9c3.9-0.4,14.6,4.6,21.1,6.8
				c20.6,6.9,44.5,14.6,59.6,24.9c6.6,4.5,23.7,25,26.4,5.3c2.3-16.9-25.4-30.3-33.9-35.4c-17.2-10.5-30.3-17.2-43.7-25.6
				C1067.5,1344,1083.8,1338.4,1102.4,1335.1z"/>
		</defs>
		<radialGradient id="SVGID_17_" cx="1463.417" cy="1227.3176" r="714.5466" gradientUnits="userSpaceOnUse">
			<stop  offset="0" style="stop-color:#7FC385"/>
			<stop  offset="0.2672" style="stop-color:#7EBF89"/>
			<stop  offset="0.5397" style="stop-color:#7AB394"/>
			<stop  offset="0.8136" style="stop-color:#739EA7"/>
			<stop  offset="1" style="stop-color:#6D8CB8"/>
		</radialGradient>
		<use xlink:href="#SVGID_16_"  style="overflow:visible;fill-rule:evenodd;clip-rule:evenodd;fill:url(#SVGID_17_);"/>
		<clipPath id="SVGID_18_">
			<use xlink:href="#SVGID_16_"  style="overflow:visible;"/>
		</clipPath>
		<g class="st16">
			<path class="st3" d="M1106.6,1386.4c9.5,2.2,11.2,9.7,17.3,14.3c2.1,1.5,4.1,2.7,6,4.5c4.1,4,15.6,24.6,0.8,25.6
				c-8.1,0.6-12.2-9.6-16.6-18.1C1110.1,1405,1101.7,1393.8,1106.6,1386.4z"/>
			<path class="st3" d="M1188.1,1480.7c-12.3-3-11.3-19.4-22.6-23.4c1.4,13.8,14.7,22.5,12.1,35.4c-11.7-4.1-25.6-20-24.9-36.2
				c0.7-14.7,15.9-13.2,24.1-6C1183.6,1456.4,1193.1,1471.2,1188.1,1480.7z"/>
			<path class="st3" d="M1087.8,1455.1c2.4-0.3,2.2-3.4,5.3-3c12.8,2,30.9,6.5,30.9,18.9c0,8-8.6,11.2-17.3,9.1
				c-8.5-2.1-23.9-9.1-33.2-15.1c-5.1-3.3-10.3-8.8-10.6-13.6C1069.8,1446.3,1082.4,1451.4,1087.8,1455.1z"/>
			<path class="st3" d="M1149.6,1502.6c-7.8-0.8-7-10.1-13.6-12.1c-4.6,16.8,16.9,31.3,8.3,49.8c-10.8-4.2-20.3-26.7-21.9-40.7
				c-0.4-3.4-0.6-7,0-9.8C1126.9,1469.2,1160.6,1486.6,1149.6,1502.6z"/>
			<path class="st3" d="M1016.9,1533.5c2.9-5.3,12.7-6.4,19.6-5.3c6.1-11.5,41.3-3.5,30.9,10.6
				C1060.6,1548,1020.3,1544,1016.9,1533.5z"/>
			<path class="st3" d="M1037.3,1576.5c7.8,2.8,5.5,23.4-0.8,28.7c-5-0.5-3.4-2.8-8.3-0.8
				C1022.7,1596.7,1023.5,1574.3,1037.3,1576.5z"/>
		</g>
		<g class="st16">
			<linearGradient id="SVGID_19_" gradientUnits="userSpaceOnUse" x1="1076.3473" y1="1526.4866" x2="1173.3851" y2="1646.653">
				<stop  offset="0" style="stop-color:#2E2E2E"/>
				<stop  offset="0.167" style="stop-color:#373737"/>
				<stop  offset="0.4343" style="stop-color:#4E4E4E"/>
				<stop  offset="0.7665" style="stop-color:#747474"/>
				<stop  offset="0.8626" style="stop-color:#808080"/>
			</linearGradient>
			<path class="st17" d="M1217,1411.4c6.7-5.8,18.6-6.1,26.4,0c9.2,7.2,19.3,25,28.7,41.5c12.8,22.6,20.5,44,18.1,76.9
				c-1.5,20.4-9.9,51.6-21.9,63.3c-5.5,5.4-17.5,9.7-28.7,4.5c-4.3,18.1-9,35.7-25.6,41.5c-7.7,15.3-30.1,38.8-51.3,23.4
				c-17.4-12.7-10.8-49.8-5.3-72.4c2.8-11.4,9.2-22.2,9.8-30.2c1-13.2-9.1-32.6-9.8-45.2c-5.9,37.4-14.5,90.2-26.4,127.4
				c-6.2,19.3-13,49.6-39.2,46.8c-17.3-1.9-22.4-19.8-18.9-41.5c-2.9,0.6-7.1,6.5-12.8,6.8c-6.7,9.1-14.4,18.6-27.9,17.3
				c-15.4-1.4-15.4-8.7-11.8-27.8c-8.6,16.3-12.1,46.9-36.5,45.1c-6-0.4-7.9-3.3-12.1-6.8c-1.9,10.4-2.8,21.8-6.8,30.2
				c-2.8-21.1,4.3-44.1,8.3-65.6c4.5-24.2,9.3-52.3,22.6-66.4c21.2-22.5,69-21.9,89-47.5c8.6-11,15.7-24,23.4-35.4
				c8-12,15.9-22.5,26.4-32.4c21.1-20,45.2-32.7,61.8-55.8C1202,1406.6,1213.2,1402.5,1217,1411.4z"/>
		</g>
	</g>
	<g>
		<defs>
			<path id="SVGID_20_" d="M1437.2,1193.1c46.2,4.6,66.8,32.5,86,61.8c-22.4-13.4-55-2.7-77.7,7.5c-4.5,2-11.6,4.1-12.8,8.3
				c-2.4,8.2,5.1,15.7,10.6,16.6c12.7,2,24.2-11.1,37-12.8c29.2-4,42,17,61.1,23.4c2.2,11.7,5.4,22.2,5.3,36.2
				c-3.1,1.3-5.7-4.6-9.1-7.5c-16.7-14.6-41.3-22.3-75.4-18.9c-10.5,1.1-25.8,2.5-26.4,11.3c-1.2,19,30.8,1.5,42.2,0.8
				c20.9-1.4,31.6,11.9,43.7,24.1c3.8,3.8,22.1,19.8,23.4,26.4c1.7,9-4.8,23.3-7.5,33.2c-9.3,34-20.3,57.2-37,83.7
				c-7-16.6-21-25.5-33.2-36.2c1.3-7,3.2-13.9,3.8-22.6c0.9-12.8,2-35.4-5.3-36.9c-8-1.8-13,15-15.1,21.1
				c-3.6,10.4-5.2,19.8-8.3,28.7c-24.1-9.5-53.8-13.6-79.2-21.9c-13.4-25.9,5.9-42.4,18.1-58.1c8.2-10.5,19.1-20.5,18.9-33.9
				c-14.2-7.5-26,9.4-34.7,18.9c-15.7,17.1-32.1,33.1-37,58.8c-7.2-4-13.3-8.5-19.6-15.1c-4.9-5.1-13.6-14-14.3-21.1
				c-0.8-7.8,4.3-19.8,8.3-26.4c4.6-7.6,13.5-14.3,21.1-22.6c7.3-8,15-16.3,23.4-20.4c11.8-5.7,27.8-7,30.2-21.1
				c-42.4,1.8-64.5,34.6-92.8,50.5c-5.1-59.3,27.2-87.9,83.7-88.2C1384.8,1218.2,1401.6,1196.3,1437.2,1193.1z"/>
		</defs>
		<radialGradient id="SVGID_21_" cx="1463.4177" cy="1227.316" r="714.5499" gradientUnits="userSpaceOnUse">
			<stop  offset="0" style="stop-color:#7FC385"/>
			<stop  offset="0.2672" style="stop-color:#7EBF89"/>
			<stop  offset="0.5397" style="stop-color:#7AB394"/>
			<stop  offset="0.8136" style="stop-color:#739EA7"/>
			<stop  offset="1" style="stop-color:#6D8CB8"/>
		</radialGradient>
		<use xlink:href="#SVGID_20_"  style="overflow:visible;fill-rule:evenodd;clip-rule:evenodd;fill:url(#SVGID_21_);"/>
		<clipPath id="SVGID_22_">
			<use xlink:href="#SVGID_20_"  style="overflow:visible;"/>
		</clipPath>
		<linearGradient id="SVGID_23_" gradientUnits="userSpaceOnUse" x1="1466.5471" y1="1318.4011" x2="1341.1167" y2="1410.6991">
			<stop  offset="0" style="stop-color:#2E2E2E"/>
			<stop  offset="0.167" style="stop-color:#373737"/>
			<stop  offset="0.4343" style="stop-color:#4E4E4E"/>
			<stop  offset="0.7665" style="stop-color:#747474"/>
			<stop  offset="0.8626" style="stop-color:#808080"/>
		</linearGradient>
		<path class="st18" d="M1360.4,1229.2c7.8,1.2,10,5.7,13.6,9.1c3.7,3.4,7.9,6.2,12.1,10.6c17.6,18.5,21.9,58.1,46,82.2
			c31.8,31.8,75.2,43.4,78.4,99.5c0.9,15.1-1.2,27.6-3,40c-1.5,10.7,0.8,23.5-6,30.2c-3.7,0.6-2.4-6.7-1.5-8.3
			c-15.4,9.5-25.5-6-30.9-15.8c-0.6,14.3-9.9,23.2-21.1,23.4c-23.8,0.4-25.2-31.3-32.4-48.3c-11.8,4.1-25.3-0.1-27.9-9.8
			c-3.4,0.9-5.9,2.7-10.6,2.3c4,12.2-6.9,23.8-17.3,16.6c-3.8,2.3-4.4,5.3-8.3,6c-19.4,3.7-17.1-29.5-24.9-40
			c-22,2.9-19.4-25.3-30.2-36.2c-3.2,7.3-3.5,17.6-9.1,22.6c-13.6-8.2-22.8-52,2.3-54.3c-5.8-16.6-12.9-37.9-21.1-56.6
			c-2.6-5.8-7.7-12.5-7.5-18.1c0.3-9,14-15.6,21.1-5.3c-5.6-12.2-10-34,6-33.9c8.3,0.1,10.4,6.9,14.3,12.8c1.5-2.5,1.4-6.7,4.5-7.5
			c6.6-0.4,11.3-2.8,15.1-6c1.8-21.2,24.9-8.2,40-7.5C1365.8,1238.1,1356.7,1232.4,1360.4,1229.2z"/>
		<g class="st19">
			<path class="st3" d="M1453.6,1263.5c-0.1,10.2-10.6,10.1-18.1,12.8c1.4,9.5,12.6,2.6,18.1,6c-5.8,18.9-37.2,2.8-26.4-12.1
				C1431.3,1264.6,1444.8,1261,1453.6,1263.5z"/>
			<path class="st3" d="M1382.7,1269.5c2.1,12.9-11.8,23.7-22.6,21.1c-5.3,4.5-10.2,9.4-19.6,9.8c2-10.9,11.6-17.5,20.4-24.1
				C1366.9,1271.7,1375.2,1265.1,1382.7,1269.5z"/>
			<path class="st3" d="M1452.1,1312.5c-0.3,6.7-7,7.1-12.1,9c1.7,4.9,11.1,0.5,14.3,2.3c-2.2,16.3-28.6,9.2-24.1-6
				C1431.9,1312.4,1446.4,1305.8,1452.1,1312.5z"/>
			<path class="st3" d="M1394.8,1326.8c-9.2,7.4-11.1,22.1-24.1,25.6c0.1-12.9,9.3-28.9,18.1-35.4c19.3-14.4,21.7,25,2.3,23.4
				C1388.5,1334.6,1393.7,1331.3,1394.8,1326.8z"/>
			<path class="st3" d="M1467.2,1405.3c-5.1-0.2-4.5-6.1-4.5-11.3c-4.5,7.1-1.7,21.5-10.6,24.1c-8.1-11.6,1-42.2,15.1-34.7
				C1472.4,1386.2,1474.1,1401.8,1467.2,1405.3z"/>
		</g>
	</g>
	<g>
		<path class="st20" d="M848.1,861.3c-7-0.6-8.6-4.2-9.8-8.3c-4.1,2.7-6.9,6.7-12.8,7.5c-5.5-6.5-7-8.6-6-18.9
			c2-20,12.4-38,18.1-65.6c2.1-10.4,3.6-23.8,5.3-37c2-15.3-0.8-41.2,13.6-40c4.4-13.3,14.4-6.3,15.8,6c2.3,20-0.6,45.6-3,73.1
			c-2.4,26.9-2.8,53.5-9,70.1C858,854.2,852.1,859.9,848.1,861.3z"/>
	</g>
	<g>
		<defs>
			<path id="SVGID_24_" d="M897.4,688.2c8.8,10.1,21.9,14.3,31.7,21.9c-1.3,12.7,1,28.1,0.8,42.2c-19.3,15.4-42.3,28.8-61.8,43
				c-6.8,4.9-13.8,11.5-21.1,12.8c5.8-24.1,8.7-58.9,5.3-85.2c2.9,2.7,2.4-0.5,3.8-3c2.7-0.6,3.6,1.7,5.3,0
				c10.7-7.1,20.6-15.1,33.2-20.4C890.5,692.6,899.1,692.9,897.4,688.2z"/>
		</defs>
		<use xlink:href="#SVGID_24_"  style="overflow:visible;fill-rule:evenodd;clip-rule:evenodd;fill:#F5BF9B;"/>
		<clipPath id="SVGID_25_">
			<use xlink:href="#SVGID_24_"  style="overflow:visible;"/>
		</clipPath>
		
			<radialGradient id="SVGID_26_" cx="1363.4734" cy="804.2862" r="110.6471" gradientTransform="matrix(1.4126 3.150000e-02 -2.520000e-02 1.1314 -1059.6746 -247.0435)" gradientUnits="userSpaceOnUse">
			<stop  offset="9.183670e-02" style="stop-color:#D45F5F"/>
			<stop  offset="0.3403" style="stop-color:#FBCACF"/>
			<stop  offset="0.4264" style="stop-color:#FCDDE0"/>
			<stop  offset="0.5421" style="stop-color:#FEF0F1"/>
			<stop  offset="0.6617" style="stop-color:#FFFBFC"/>
			<stop  offset="0.79" style="stop-color:#FFFFFF"/>
		</radialGradient>
		<path class="st21" d="M983.3,708.9c-1.4,60.7-63.9,108.5-139.7,106.8c-75.8-1.7-136.1-52.3-134.7-112.9
			c1.4-60.7,63.9-108.5,139.7-106.8C924.3,597.7,984.7,648.3,983.3,708.9z"/>
		
			<radialGradient id="SVGID_27_" cx="1285.1754" cy="812.9557" r="110.6516" gradientTransform="matrix(0.8559 1.910000e-02 -2.520000e-02 1.1314 -175.676 -227.0281)" gradientUnits="userSpaceOnUse">
			<stop  offset="9.183670e-02" style="stop-color:#D45F5F"/>
			<stop  offset="0.3403" style="stop-color:#FBCACF"/>
			<stop  offset="0.4264" style="stop-color:#FCDDE0"/>
			<stop  offset="0.5421" style="stop-color:#FEF0F1"/>
			<stop  offset="0.6617" style="stop-color:#FFFBFC"/>
			<stop  offset="0.79" style="stop-color:#FFFFFF"/>
		</radialGradient>
		<path class="st22" d="M987,719.2c-1.4,60.7-39.7,109.1-85.6,108c-45.9-1-82-51.1-80.7-111.7c1.4-60.7,39.7-109.1,85.6-108
			C952.2,608.4,988.3,658.5,987,719.2z"/>
	</g>
	<g>
		<g>
			<g>
				<linearGradient id="SVGID_28_" gradientUnits="userSpaceOnUse" x1="506.5393" y1="1034.9341" x2="506.5393" y2="466.4902">
					<stop  offset="0" style="stop-color:#8DB4C7"/>
					<stop  offset="1" style="stop-color:#9AD9D5"/>
				</linearGradient>
				<path class="st23" d="M781.4,1015.2l-365.8-0.9c-23.1-0.1-47.4-19-54-42.2L226.1,498.2c-3.6-12.7-1.2-24.1,5.5-31.8
					c-5.7,6.6-11.5,13.2-17.2,19.8c-6.7,7.7-9.1,19.1-5.5,31.7l135.5,473.8c6.6,23.1,30.9,42.1,54,42.2l365.8,0.9
					c10.5,0,19-3.8,24.5-10.2c4.9-5.6,9.7-11.2,14.6-16.8c0.9-1,1.7-2,2.6-3C800.4,1011.3,791.9,1015.2,781.4,1015.2z"/>
				<linearGradient id="SVGID_29_" gradientUnits="userSpaceOnUse" x1="259.6531" y1="452.4857" x2="614.3183" y2="1067.9343">
					<stop  offset="0" style="stop-color:#FFFFFF"/>
					<stop  offset="0.5946" style="stop-color:#D1D1D1"/>
					<stop  offset="0.6575" style="stop-color:#EDEDED"/>
					<stop  offset="0.6685" style="stop-color:#D8D8D8"/>
					<stop  offset="0.6924" style="stop-color:#AFAFAF"/>
					<stop  offset="0.7185" style="stop-color:#8B8B8B"/>
					<stop  offset="0.7466" style="stop-color:#6C6C6C"/>
					<stop  offset="0.7772" style="stop-color:#535353"/>
					<stop  offset="0.8115" style="stop-color:#404040"/>
					<stop  offset="0.8514" style="stop-color:#333333"/>
					<stop  offset="0.9021" style="stop-color:#2B2B2B"/>
					<stop  offset="1" style="stop-color:#292929"/>
				</linearGradient>
				<path class="st24" d="M781.4,1015.2l-365.8-0.9c-23.1-0.1-47.4-19-54-42.2L226.1,498.2c-3.6-12.7-1.2-24.1,5.5-31.8
					c-5.7,6.6-11.5,13.2-17.2,19.8c-6.7,7.7-9.1,19.1-5.5,31.7l135.5,473.8c6.6,23.1,30.9,42.1,54,42.2l365.8,0.9
					c10.5,0,19-3.8,24.5-10.2c4.9-5.6,9.7-11.2,14.6-16.8c0.9-1,1.7-2,2.6-3C800.4,1011.3,791.9,1015.2,781.4,1015.2z"/>
			</g>
			<g>
				<linearGradient id="SVGID_30_" gradientUnits="userSpaceOnUse" x1="518.7338" y1="1015.158" x2="518.7338" y2="456.2876">
					<stop  offset="0" style="stop-color:#8DB4C7"/>
					<stop  offset="1" style="stop-color:#8DC7C4"/>
				</linearGradient>
				<path class="st25" d="M621.9,457.2c23.1,0.1,47.4,19,54,42.2l135.5,473.8c6.6,23.1-6.9,42-30,42l-365.8-0.9
					c-23.1-0.1-47.4-19-54-42.2L226.1,498.2c-6.6-23.1,6.9-42,30-42L621.9,457.2z"/>
			</g>
		</g>
		<g>
			<g>
				<linearGradient id="SVGID_31_" gradientUnits="userSpaceOnUse" x1="506.5393" y1="1034.9341" x2="506.5393" y2="456.2923">
					<stop  offset="0" style="stop-color:#6E6E6E"/>
					<stop  offset="1" style="stop-color:#FFFFFF"/>
				</linearGradient>
				<path class="st26" d="M781.4,1015.2l-365.8-0.9c-23.1-0.1-47.4-19-54-42.2L226.1,498.2c-3.6-12.7-1.2-24.1,5.5-31.8
					c-5.7,6.6-11.5,13.2-17.2,19.8c-6.7,7.7-9.1,19.1-5.5,31.7l135.5,473.8c6.6,23.1,30.9,42.1,54,42.2l365.8,0.9
					c10.5,0,19-3.8,24.5-10.2c4.9-5.6,9.7-11.2,14.6-16.8c0.9-1,1.7-2,2.6-3C800.4,1011.3,791.9,1015.2,781.4,1015.2z"/>
				<linearGradient id="SVGID_32_" gradientUnits="userSpaceOnUse" x1="506.5393" y1="1034.9341" x2="506.5393" y2="456.2923">
					<stop  offset="0" style="stop-color:#6E6E6E"/>
					<stop  offset="1" style="stop-color:#FFFFFF"/>
				</linearGradient>
				<path class="st27" d="M781.4,1015.2l-365.8-0.9c-23.1-0.1-47.4-19-54-42.2L226.1,498.2c-3.6-12.7-1.2-24.1,5.5-31.8
					c-5.7,6.6-11.5,13.2-17.2,19.8c-6.7,7.7-9.1,19.1-5.5,31.7l135.5,473.8c6.6,23.1,30.9,42.1,54,42.2l365.8,0.9
					c10.5,0,19-3.8,24.5-10.2c4.9-5.6,9.7-11.2,14.6-16.8c0.9-1,1.7-2,2.6-3C800.4,1011.3,791.9,1015.2,781.4,1015.2z"/>
				<linearGradient id="SVGID_33_" gradientUnits="userSpaceOnUse" x1="506.5393" y1="1034.9341" x2="506.5393" y2="456.2923">
					<stop  offset="0" style="stop-color:#6E6E6E"/>
					<stop  offset="1" style="stop-color:#FFFFFF"/>
				</linearGradient>
				<path class="st28" d="M781.4,1015.2l-365.8-0.9c-23.1-0.1-47.4-19-54-42.2L226.1,498.2c-3.6-12.7-1.2-24.1,5.5-31.8
					c-5.7,6.6-11.5,13.2-17.2,19.8c-6.7,7.7-9.1,19.1-5.5,31.7l135.5,473.8c6.6,23.1,30.9,42.1,54,42.2l365.8,0.9
					c10.5,0,19-3.8,24.5-10.2c4.9-5.6,9.7-11.2,14.6-16.8c0.9-1,1.7-2,2.6-3C800.4,1011.3,791.9,1015.2,781.4,1015.2z"/>
			</g>
			<g>
				<linearGradient id="SVGID_34_" gradientUnits="userSpaceOnUse" x1="518.7338" y1="1034.9292" x2="518.7338" y2="456.2859">
					<stop  offset="0" style="stop-color:#6E6E6E"/>
					<stop  offset="1" style="stop-color:#FFFFFF"/>
				</linearGradient>
				<path class="st29" d="M621.9,457.2c23.1,0.1,47.4,19,54,42.2l135.5,473.8c6.6,23.1-6.9,42-30,42l-365.8-0.9
					c-23.1-0.1-47.4-19-54-42.2L226.1,498.2c-6.6-23.1,6.9-42,30-42L621.9,457.2z"/>
				<linearGradient id="SVGID_35_" gradientUnits="userSpaceOnUse" x1="518.7338" y1="1034.9292" x2="518.7338" y2="456.2859">
					<stop  offset="0" style="stop-color:#6E6E6E"/>
					<stop  offset="1" style="stop-color:#FFFFFF"/>
				</linearGradient>
				<path class="st30" d="M621.9,457.2c23.1,0.1,47.4,19,54,42.2l135.5,473.8c6.6,23.1-6.9,42-30,42l-365.8-0.9
					c-23.1-0.1-47.4-19-54-42.2L226.1,498.2c-6.6-23.1,6.9-42,30-42L621.9,457.2z"/>
			</g>
		</g>
	</g>
	<g class="st31">
		<path class="st8" d="M781.4,1015.5l-245.9-0.5l-123-0.3c-10.4-0.7-20.3-5-28.7-11c-8.4-6.1-15.4-14.1-19.9-23.4
			c-2.3-4.7-3.5-9.7-5-14.6l-4.2-14.8l-8.5-29.5l-67.4-236.4l-33.7-118.2l-16.9-59.1l-2.1-7.4c-0.7-2.4-1.5-5-1.8-7.5
			c-0.8-5.1-0.6-10.4,0.8-15.4c1.4-5,4.2-9.6,8.1-13c3.9-3.5,8.7-5.8,13.6-7.3c-4.6,2.3-9.2,4.6-12.9,8c-3.7,3.4-6.3,7.8-7.5,12.6
			c-1.2,4.8-1.2,9.9-0.4,14.8c0.2,1.2,0.5,2.4,0.8,3.6c1.1,3.6,3.4,11,3.4,11l18.3,58.7l35.4,117.7c11.9,39.2,23.1,78.6,34.6,118
			l34.3,118.1l8.4,29.6l4.2,14.8l2.1,7.3c0.6,2.2,1.5,4.3,2.4,6.3c7.8,16.4,25.2,29.5,43,31c0.9,0.1,2.6,0.1,3.5,0.1l3.8,0l7.7,0.1
			l15.4,0.1l30.7,0.2c20.5,0.1,41,0.3,61.5,0.7l122.9,1.9l122.9,3.2C781.7,1015.3,781.6,1015.5,781.4,1015.5z"/>
	</g>
	<g>
		<path class="st32" d="M415.6,991.6c-13.1,0-28.5-12.3-32.4-25.8L247.8,492c-1.2-4.4-1-8.3,0.6-10.4c1.8-2.4,5.5-2.7,7.6-2.7
			l365.9,0.9c13.1,0,28.5,12.3,32.4,25.8l135.5,473.8c1.3,4.4,1,8.3-0.6,10.4c-1.8,2.4-5.5,2.7-7.6,2.7L415.6,991.6z"/>
		<linearGradient id="SVGID_36_" gradientUnits="userSpaceOnUse" x1="518.7332" y1="992.5362" x2="518.7332" y2="478.9156">
			<stop  offset="0" style="stop-color:#6E6E6E"/>
			<stop  offset="1" style="stop-color:#FFFFFF"/>
		</linearGradient>
		<path class="st33" d="M415.6,991.6c-13.1,0-28.5-12.3-32.4-25.8L247.8,492c-1.2-4.4-1-8.3,0.6-10.4c1.8-2.4,5.5-2.7,7.6-2.7
			l365.9,0.9c13.1,0,28.5,12.3,32.4,25.8l135.5,473.8c1.3,4.4,1,8.3-0.6,10.4c-1.8,2.4-5.5,2.7-7.6,2.7L415.6,991.6z"/>
	</g>
	<g>
		<g class="st34">
			<defs>
				<polygon id="SVGID_37_" class="st34" points="428.9,616.5 398.7,511.8 507.2,511.8 537.5,616.5 				"/>
			</defs>
			<clipPath id="SVGID_38_">
				<use xlink:href="#SVGID_37_"  style="overflow:visible;"/>
			</clipPath>
			<g class="st35">
				<path class="st8" d="M497.1,511.8h-88.3c-5.6,0-8.8,4.6-7.2,10.1l24.4,84.4c1.6,5.6,7.5,10.1,13,10.1h88.3
					c5.6,0,8.8-4.6,7.2-10.1l-24.4-84.4C508.5,516.4,502.7,511.8,497.1,511.8L497.1,511.8z"/>
			</g>
		</g>
	</g>
	<g>
		<g class="st34">
			<defs>
				<polygon id="SVGID_39_" class="st34" points="474.1,766.9 443.9,662.2 552.5,662.2 582.7,766.9 				"/>
			</defs>
			<clipPath id="SVGID_40_">
				<use xlink:href="#SVGID_39_"  style="overflow:visible;"/>
			</clipPath>
			<g class="st36">
				<path class="st8" d="M542.3,662.2h-88.3c-5.6,0-8.8,4.6-7.2,10.1l24.4,84.4c1.6,5.6,7.5,10.1,13.1,10.1h88.3
					c5.6,0,8.8-4.6,7.2-10.1l-24.4-84.4C553.8,666.8,547.9,662.2,542.3,662.2L542.3,662.2z"/>
			</g>
		</g>
	</g>
	<g>
		<g class="st34">
			<defs>
				<polygon id="SVGID_41_" class="st34" points="599.3,766.9 569.1,662.2 677.6,662.2 707.9,766.9 				"/>
			</defs>
			<clipPath id="SVGID_42_">
				<use xlink:href="#SVGID_41_"  style="overflow:visible;"/>
			</clipPath>
			<g class="st37">
				<path class="st38" d="M667.5,662.2h-88.3c-5.6,0-8.8,4.6-7.2,10.1l24.4,84.4c1.6,5.6,7.5,10.1,13.1,10.1h88.3
					c5.6,0,8.8-4.6,7.2-10.1l-24.4-84.4C679,666.8,673.1,662.2,667.5,662.2L667.5,662.2z"/>
			</g>
		</g>
	</g>
	<g>
		<g class="st34">
			<defs>
				<polygon id="SVGID_43_" class="st34" points="520.1,915.7 489.9,811 598.5,811 628.7,915.7 				"/>
			</defs>
			<clipPath id="SVGID_44_">
				<use xlink:href="#SVGID_43_"  style="overflow:visible;"/>
			</clipPath>
			<g class="st39">
				<path class="st8" d="M588.4,811h-88.3c-5.6,0-8.8,4.6-7.2,10.1l24.4,84.4c1.6,5.6,7.5,10.1,13.1,10.1h88.3
					c5.6,0,8.8-4.5,7.2-10.1l-24.4-84.4C599.8,815.6,593.9,811,588.4,811L588.4,811z"/>
			</g>
		</g>
	</g>
	<g>
		<g class="st34">
			<defs>
				<polygon id="SVGID_45_" class="st34" points="645.3,915.7 615.1,811 723.6,811 753.8,915.7 				"/>
			</defs>
			<clipPath id="SVGID_46_">
				<use xlink:href="#SVGID_45_"  style="overflow:visible;"/>
			</clipPath>
			<g class="st40">
				<path class="st8" d="M713.5,811h-88.3c-5.6,0-8.8,4.6-7.2,10.1l24.4,84.4c1.6,5.6,7.5,10.1,13.1,10.1h88.3
					c5.6,0,8.8-4.5,7.2-10.1l-24.4-84.4C724.9,815.6,719.1,811,713.5,811L713.5,811z"/>
			</g>
		</g>
	</g>
	<g>
		<g class="st34">
			<defs>
				<polygon id="SVGID_47_" class="st34" points="554.7,616.5 524.5,511.8 633,511.8 663.3,616.5 				"/>
			</defs>
			<clipPath id="SVGID_48_">
				<use xlink:href="#SVGID_47_"  style="overflow:visible;"/>
			</clipPath>
			<g class="st41">
				<path class="st8" d="M622.9,511.8h-88.3c-5.6,0-8.8,4.6-7.2,10.1l24.4,84.4c1.6,5.6,7.5,10.1,13.1,10.1h88.3
					c5.6,0,8.8-4.6,7.2-10.1L636,521.9C634.3,516.4,628.5,511.8,622.9,511.8L622.9,511.8z"/>
			</g>
		</g>
	</g>
	<g>
		<g class="st34">
			<defs>
				<polygon id="SVGID_49_" class="st34" points="393.7,926.8 273.7,511 382.2,511 502.3,926.8 				"/>
			</defs>
			<clipPath id="SVGID_50_">
				<use xlink:href="#SVGID_49_"  style="overflow:visible;"/>
			</clipPath>
			<g class="st42">
				<path class="st38" d="M372.1,511h-88.3c-5.6,0-8.8,4.6-7.2,10.2l114.2,395.6c1.6,5.6,7.5,10.2,13.1,10.2h88.3
					c5.6,0,8.8-4.6,7.2-10.2L385.2,521.1C383.6,515.6,377.7,511,372.1,511L372.1,511z"/>
			</g>
		</g>
	</g>
	<g>
		<path d="M290.9,472.4h-93.8l40.8,147.2l14.7,51.3l19.3-12.4h72.8c9.9,0,15.7-8.1,12.8-18l-43.3-150.1
			C311.3,480.6,300.9,472.4,290.9,472.4L290.9,472.4z"/>
	</g>
	<path class="st3" d="M724.7,802.6c3.4-1.8,7.9,6.4,9.8,10.6c5.1,11.2,8.5,27.1,12.8,39.2c3.3,9.2,7.7,15.6,12.8,21.9
		c5.4,6.6,11,12.7,17.3,16.6c2.8,1.7,16.4,4.8,15.8,9.8c-0.2,2.1-5.4,4.7-9,4.5c-3.8-0.2-11-5.3-15.1-8.3
		c-5.9-4.4-14.5-11.8-18.9-18.9c-6.3-10.3-9.1-24-12.8-37C733.2,826.2,727.5,814.1,724.7,802.6z"/>
	<g>
		<g>
			<defs>
				<path id="SVGID_51_" d="M753.5,768.8c0.1-1,2.5,0.6,3.8,2c13.4,11.8,23,23.6,30.6,42.9c4.8,12.2,5.4,25.9,7.5,39.2
					c2.1,13.2,10.6,22.2,11.3,33.9c-3,3-5.1-0.6-7.5-2.3c-2,7.6-9.7,7-14.3,10.6c-15.6-7.4-30.3-21.1-37.7-37.7
					c-3.3-7.6-3.7-16.3-6.8-24.9c-4.3-12-14.9-22.1-16.9-33.1c-0.6-3.4-0.3-9.2,1.7-10.1c2-0.8,4.7,0.8,6.7,2.4
					c12,9.5,14.5,31,31.8,35.2c8.6-17.8-3.7-36.9-9.2-53.3C754,772,753.4,769.7,753.5,768.8z"/>
			</defs>
			<use xlink:href="#SVGID_51_"  style="overflow:visible;fill-rule:evenodd;clip-rule:evenodd;fill:#F5BF9B;"/>
			<clipPath id="SVGID_52_">
				<use xlink:href="#SVGID_51_"  style="overflow:visible;"/>
			</clipPath>
			<g class="st43">
				<radialGradient id="SVGID_53_" cx="794.4654" cy="870.524" r="82.8728" gradientUnits="userSpaceOnUse">
					<stop  offset="0" style="stop-color:#F0806B"/>
					<stop  offset="1" style="stop-color:#F5BF9B"/>
				</radialGradient>
				<path class="st44" d="M877.3,870.5c0,45.8-37.1,82.9-82.9,82.9c-45.8,0-82.9-37.1-82.9-82.9c0-45.8,37.1-82.9,82.9-82.9
					C840.2,787.7,877.3,824.8,877.3,870.5z"/>
				<path class="st45" d="M801.5,769.8c20.8,10.8,17.4,77,5.3,93.5c10.9,15.1-9.5,31.4-21.1,43c-8.4,8.4-22.3,27.6-33.9,24.1
					c-7.1-2.1-5.7-13.9-2.3-19.6c4.4-7.2,12.8-11.1,16.6-17.3c-17.7-0.4-28.6-7.6-33.2-21.1c6.1-15.3,17.6,0.4,27.9,0.8
					c30.5,1.1,35.3-43.9,33.9-73.2c-0.5-10.5-1.7-20,2.3-27.1C798.6,772,800.2,771.1,801.5,769.8z"/>
				<path class="st45" d="M753.2,779.6c5.4,10,27.7,42.1,10.6,47.4c-1.6-5.8-3.6-11.9,0.8-15.7C760.9,800.5,754.8,792.4,753.2,779.6
					z"/>
			</g>
		</g>
	</g>
	<g>
		<g>
			<defs>
				<path id="SVGID_54_" d="M945.5,797.1c-19.3,4.8-38,12.6-55.8,20.4c-17.5,7.6-36.7,15-51.3,24.9c-3.1,2.1-5.6,5.6-8.3,8.3
					c-1.4,8-3.1,15.5-5.3,22.6c-1.7,1.5-5.8,0.8-6.8-0.8c-4,6.8-8.3,13.3-13.6,18.9c-7-3.4-2.9-11.3-2.3-18.1
					c1.3-13.8-1.7-31.2,2.3-41.5c2.7-7,19.3-19.1,27.9-25.6c29.6-22.6,72.2-45,105.6-58.1C943.7,760.9,946.7,779.9,945.5,797.1z"/>
			</defs>
			<use xlink:href="#SVGID_54_"  style="overflow:visible;fill-rule:evenodd;clip-rule:evenodd;fill:#FEF8EA;"/>
			<clipPath id="SVGID_55_">
				<use xlink:href="#SVGID_54_"  style="overflow:visible;"/>
			</clipPath>
			<radialGradient id="SVGID_56_" cx="824.4904" cy="809.3274" r="60.2918" gradientUnits="userSpaceOnUse">
				<stop  offset="0.3022" style="stop-color:#FFFFFF"/>
				<stop  offset="0.5651" style="stop-color:#FEF6EF"/>
				<stop  offset="1" style="stop-color:#FBE1CB"/>
			</radialGradient>
			<path class="st46" d="M884.8,809.3c0,33.3-27,60.3-60.3,60.3c-33.3,0-60.3-27-60.3-60.3c0-33.3,27-60.3,60.3-60.3
				C857.8,749,884.8,776,884.8,809.3z"/>
			<g class="st47">
				<path class="st48" d="M800.6,884.6c-11.5-8,2.2-21.8,9.8-29.4c13.2-13.2,25.4-25,40-37c6.4-5.3,19.6-11.9,21.9-17.3
					c1.6-3.8,1.4-11.2,2.3-16.6c0.9-5.5,1.8-10.8,3-15.8c1.4-5.7,3.8-25.7,14.3-23.4c11,2.4,0.8,34,2.3,41.5
					c10.3-5.5,23-17.3,37.7-11.3c-6,18.4-25.3,23.5-38.5,34.7c1.4,13.9,5,38.1-8.3,38.5c-9.3,0.2-11.6-12.1-12.8-22.6
					C845.9,842.9,826.7,867.2,800.6,884.6z"/>
			</g>
		</g>
	</g>
	<g>
		<path class="st49" d="M471.1,748.1c2.5,0.5,3.4,2.1,4.2,3.4c11.5,17.3,24.1,39.9,37.5,59.7c5,7.3,11.9,14.1,13.6,20.4
			c1.1,4.2-0.1,8.1,0,12.8c0.6,20.3,4.9,46.2,12.1,61.1c2.4,5.1,12.7,12.5,9,18.1c-1.6,2.5-6.4,3.2-9,0c1.1,3.8,4.5,10.9,0,13.6
			c-5,0.5-6.1-3-7.5-6c-5.4,11.9-16.7,1.2-26.4,6.8c-19.6-14.3-30.3-37.5-29.4-72.4c-1.3-2-4.2-2.3-6-3.8c0,8.3-1.2,15.4-5.3,19.6
			c-4.5-9.3-14.1-20.6-13.6-33.2c0.1-3.2,2.5-5.2,3-8.3c0.7-4.8-2.3-10,0.8-14.3c-10.9-0.8-23.1-0.4-31.7-5.3
			c2.8-8,15.5-9,25.6-11.3c12.3-2.9,25.8-7.3,37-4.5c-5-14-17-30.5-14.8-52.8C470.2,750.4,470.3,748.4,471.1,748.1z"/>
	</g>
	<path class="st3" d="M526.6,1034.3c0,0-28-0.1-33.1-0.1c-5.1,0-11.3-19.9-11.3-19.9s-5-23.7-10-40.3c-0.8-2.7-2.7-6.4-3.8-9.8
		c-2.5-8.1-4.6-10.2,1.5-14.3c1.7-1.2,6-2.8,6-3c0.7-3.1-5.4-5.7-9.8-10.6c-3.3-3.7-6.9-8.8-8.3-12.1c-1.3-3.1-2.1-7.9-3-9.8
		c-1.3-2.8-3.4-5.1-5.3-7.5c-1.8-2.3-3.6-5.3-5.3-6.8c-3.4-3.1-8.6-4-12.1-8.3c-2.9-3.5-4.6-11.1-7.5-15.8c-1.5-2.4-4.1-4.4-6.8-7.5
		c-2.4-2.8-3.6-6.3-5.3-8.3c-3.1-3.8-11.5-7.7-11.3-12.1c0.4-8.5,26.2-8.5,33.9-9.1c12.5-0.9,18.7-0.9,30.2-2.3
		c4.5-0.5,10.7-3,12.8-0.8c5.5,5.9,8.8,17.6,12.1,27.1c14,40.7,23.6,100,35.4,145.5c1.4,5.3,6.5,20.4,5.3,24.9
		c-1.1,4.2,26.5,22.3,23.8,22.3C543.3,1056.1,526.6,1034.3,526.6,1034.3z"/>
	<g>
		<defs>
			<path id="SVGID_57_" d="M471.1,748.1c2.5,0.5,3.4,2.1,4.2,3.4c11.5,17.3,24.1,39.9,37.5,59.7c5,7.3,11.9,14.1,13.6,20.4
				c1.1,4.2-0.1,8.1,0,12.8c0.6,20.3,4.9,46.2,12.1,61.1c2.4,5.1,12.7,12.5,9,18.1c-1.6,2.5-6.4,3.2-9,0c1.1,3.8,4.5,10.9,0,13.6
				c-5,0.5-6.1-3-7.5-6c-5.4,11.9-16.7,1.2-26.4,6.8c-19.6-14.3-30.3-37.5-29.4-72.4c-1.3-2-4.2-2.3-6-3.8c0,8.3-1.2,15.4-5.3,19.6
				c-4.5-9.3-14.1-20.6-13.6-33.2c0.1-3.2,2.5-5.2,3-8.3c0.7-4.8-2.3-10,0.8-14.3c-10.9-0.8-23.1-0.4-31.7-5.3
				c2.8-8,15.5-9,25.6-11.3c12.3-2.9,25.8-7.3,37-4.5c-5-14-17-30.5-14.8-52.8C470.2,750.4,470.3,748.4,471.1,748.1z"/>
		</defs>
		<clipPath id="SVGID_58_">
			<use xlink:href="#SVGID_57_"  style="overflow:visible;"/>
		</clipPath>
		<g class="st50">
			<radialGradient id="SVGID_59_" cx="498.5834" cy="770.0632" r="144.1364" gradientUnits="userSpaceOnUse">
				<stop  offset="0.3681" style="stop-color:#F5BF9B"/>
				<stop  offset="0.5022" style="stop-color:#F4B694"/>
				<stop  offset="0.7251" style="stop-color:#F29C80"/>
				<stop  offset="0.9231" style="stop-color:#F0806B"/>
			</radialGradient>
			<circle class="st51" cx="498.6" cy="770.1" r="144.1"/>
			<radialGradient id="SVGID_60_" cx="397.3023" cy="744.441" r="139.5531" gradientUnits="userSpaceOnUse">
				<stop  offset="0" style="stop-color:#F0806B"/>
				<stop  offset="1" style="stop-color:#FFFFFF"/>
			</radialGradient>
			<path class="st52" d="M536.9,744.4c0,77.1-62.5,139.5-139.6,139.5c-77.1,0-139.6-62.5-139.6-139.5c0-77.1,62.5-139.6,139.6-139.6
				C474.4,604.9,536.9,667.4,536.9,744.4z"/>
			<path class="st45" d="M481.7,799.8c10.4,4.4,19.9,9.8,21.9,22.6c-4.5-2.8-7.2-8.2-11.3-12.1c-1.9-1.8-4-3.5-6-5.3
				C484.6,803.7,480.5,802.7,481.7,799.8z"/>
			<path class="st45" d="M441.7,827.7c-1.5-1.5,0.3-1.5,0.8-3c-4.1-0.9-24.2,0.8-23.4-6c0.6-5.1,20.3-1.7,28.7-2.3
				c7.6-0.5,16-3.1,24.1-4.5c3.3-0.6,11.8-2.9,12.8,0.8c1.4,5.3-23.6,9.6-27.1,10.6C451.8,824.7,449.9,827.3,441.7,827.7z"/>
			<path class="st45" d="M479.4,830.7c-3.1,4.2-13.5,4.6-19.6,6.8c-4.3,1.6-8.2,4.6-12.1,3.8c1.2-6.1,10.5-7.9,18.1-9.8
				C470.5,830.2,474.2,827.7,479.4,830.7z"/>
			<path class="st45" d="M520.1,950.6c-1.8,0-3.5,0-5.3,0c-2.2,0.7-7.4-6.6-10.6-6.8c-1.4-0.1-4.9,2.3-7.5,3
				c-5.7,1.7-13.8,2.9-14.3-5.3c-0.2-2.6,1.3-3.9,3.8-6.8c4.4-5.1,5.5-3.3,0.8-9c-6.3-7-17-14.9-15.8-24.9c0.2-1.6,0.4-2.6,1.5-3.8
				c1.5-1.5,1.5,1.2,2.3-2.3c0.7-3.1-1.3-6.8-1.5-9.8c-0.3-4.6,0.9-9-0.8-15.8c-0.7,8-3.2,14.3-9.8,14.3c-1.5,0-3.3-1.5-6-3
				c-2.2-2.2-4.7-2.1-6-3c-4.2-3-7.1-7.4-6-12.1c1.2-5.4,4.5-2.3,6-7.5c1.9-6.5-5.3-7-1.5-13.6c1.9,7.1,8.2,10.6,16.6,7.5
				c1.7-0.6,1-2.6,5.3-2.3c2.2,0.2,6.2,3.3,9.1,5.3c3.9,2.7,5.7,4,6.8,6.8c2,5.6,0.2,13.4,0.8,20.4c0.4,4.6,1.6,10.9,3,15.8
				c1.4,4.9,3.3,11.4,5.3,12.8c1.1,0.8,10.7,1.7,15.1,1.5c14.7-0.7,23-8.4,33.9-15.1c5.3-3.3,10-6.3,15.8-9.1c2.1-1,4.4-1.4,6-2.3
				c5.3-2.9,9.7-9,16.6-8.3c4,0.4,9,3.5,9,10.6c0.1,7.2-9.2,13.5-13.6,16.6c-6.7,4.7-13.2,8-18.9,11.3
				c-13.8,7.9-28.1,12.6-40.7,19.6C522.3,939.7,526.4,947.3,520.1,950.6z"/>
		</g>
	</g>
	<g>
		<path class="st53" d="M951.1,805.7c-4.8,0.5-11.2-2.5-18.1-0.8C937.3,801,946.9,803,951.1,805.7z"/>
		<path class="st53" d="M973.7,870.5c2.3,34.6-4.8,70.4-8.3,103.3c1.8-3.2,2.4-7.6,4.5-10.6c1.7,1,0.3,5.3,0.8,7.5
			c7.9-4.6,6.5-18.6,16.6-21.1c0.7,9.8-1,19.7-3,29.4c-8.9,43.9-21.4,89.8-33.9,132.7c-4.4,15-8.7,29.2-16.6,41.5
			c-2.4,3.8-3.9,6.3-7.5,9.8c-6.7,6.5-15.9,13.6-29.4,12.8c-10.2-0.6-22.4-7.8-27.9-15.1c-2.8-3.8-5.9-10.6-5.3-15.1
			c0.4-2.9,2.5-6,6.8-6c1.5,0,2.9,1.7,4.5,0.8c1.3-0.7,1.7-5.2,3-6.8c2.6-1.7,4.8-1.9,5.3-2.3c2.4-2.1,1.9-6.4,5.3-8.3
			c0.6-0.3,2.8-1.4,3.8-1.5c1.5-0.1,3.7,1.3,4.5,0.8c3.1-2,7-17.7,8.3-22.6c4.7-17.7,6.3-31.8,12.1-49.8c2.5-7.9,6.5-16.7,12.8-19.6
			c2.1-1,7.9,0.3,8.3,0c1.6-1.2,1.1-7.6,2.3-10.6c0.7-1.9,3.1-3.2,4.5-6c1.6-3,1.6-6.8,3-9.8c1.3-2.8,3.4-6.5,4.5-7.5
			c1.6-1.6,6.8-2.6,7.5-3.8c1-1.5,0.7-8.7,1.5-14.3c3.7-27.7,10.1-68.2,11.3-95C973.2,877.9,972.2,873.7,973.7,870.5z"/>
	</g>
	<g>
		<defs>
			<path id="SVGID_61_" d="M549.6,2059.3c9.6,5.8-2.2,16.4,3.8,21.1c2.5,1.9,0.7,0.1,3.8-0.8c10.7-3,14.3,3.2,18.1,9.8
				c5.1-1.9,4.4-10.6,12.1-8.3c8.2,2.5,0.6,24.5,0,27.9c-2.7,14.2-3,22.9-3.8,31.7c-0.9,9.5-1.4,21-2.3,33.2
				c-0.3,5.1-0.1,10.8-1.5,15.8c-4,14-9.2,11.3-27.9,11.3c-38.2,0-72.4,0-107.8,0c-15,0-30.6,1.9-43.7,0
				c-4.5-0.6-16.8-4.6-16.6-12.1c0.1-5.4,5.9-7.6,12.1-9.8c5.8-2.1,12.3-4.5,16.6-6c29.9-10.5,53-20.9,76.9-34.7
				c4.8-2.7,10.2-5.2,14.3-8.3c8.5-6.3,16.5-15.8,22.6-24.9c5.1-7.6,8.9-15.7,12.8-23.4c1.4-2.7,3.5-5.2,4.5-7.5
				C546.2,2068.5,545.3,2063.4,549.6,2059.3z"/>
		</defs>
		<use xlink:href="#SVGID_61_"  style="overflow:visible;fill-rule:evenodd;clip-rule:evenodd;fill:#F5D3B3;"/>
		<clipPath id="SVGID_62_">
			<use xlink:href="#SVGID_61_"  style="overflow:visible;"/>
		</clipPath>
		<g class="st54">
			<path class="st3" d="M510.4,2068.8c4.9-1.1,9.7,1.1,15.8,3c4.9,1.5,9.9,2.6,14.3,3.8c21.5,5.9,32.1,8.8,59.6,12.8
				c3.6,0.5,9.6,1.2,15.8,2.3c6.5,1.1,10.4,3,12.1,5.3c4.6,6.5,1.8,18.3-6,21.1c-7.9,2.8-25.8-1.5-34.7-3c-11.7-2-22-3.2-33.2-6
				c-10.1-2.6-21.1-6.8-30.2-9c-11.2-2.8-22.2-6.1-23.4-15.1C499.5,2075.9,503.6,2070.4,510.4,2068.8z"/>
		</g>
		<radialGradient id="SVGID_63_" cx="555.8542" cy="2143.0337" r="60.2914" gradientUnits="userSpaceOnUse">
			<stop  offset="0.3022" style="stop-color:#FFFFFF"/>
			<stop  offset="0.5651" style="stop-color:#FEF6EF"/>
			<stop  offset="1" style="stop-color:#FBE1CB"/>
		</radialGradient>
		<path class="st55" d="M616.1,2143c0,33.3-27,60.3-60.3,60.3c-33.3,0-60.3-27-60.3-60.3c0-33.3,27-60.3,60.3-60.3
			C589.1,2082.7,616.1,2109.7,616.1,2143z"/>
		<g class="st56">
			<path class="st57" d="M597.9,2142c0.6,3.6-2.6,3.5-4.5,4.5c8.9,0.8,12.4,15.8-1.5,11.3c-1.1,11.9-5.4,23.1-9,34.7
				c-2.5,7.8-5,24.7-15.8,21.1c-0.3-0.1-2.1-1.5-3-1.5c-1.9-0.1-4.5,1.9-7.5,2.3c-9.3,1.2-23.4-2-33.2-1.5c-1.5,0.1-3,1.2-5.3,1.5
				c-4.8,0.8-11.2-0.2-12.8,0.8c-2.1,1.2-1,3.5-2.3,5.3c-1.5,2.2-6,4.4-9.8,3c-0.4-0.1-2.7-1.5-2.3-1.5c-3.8,0.3-3.7,4.5-9.8,3.8
				c-3.6-0.4-6.2-2.9-7.5-8.3c-7.9,3.4-10.8,2.7-14.3-2.3c-0.7-1-2.6-5.5-2.3-5.3c-2.4-1.3-8.2-0.2-12.8,0
				c-13.7,0.7-34.7,5.8-46.8,6.8c-4.4,0.4-11.1,1.1-14.3,0c-3.6-1.2-2.7-4.8-5.3-6c-2-0.9-5.1,0.3-6.8,0c-9.1-1.8-11.3-12-3.8-18.1
				c1.9-1.5,4.3-2,6.8-3.8c2-1.4,3.3-3.7,5.3-5.3c5.6-4.6,12.6-7.4,20.4-11.3c9.9-4.9,21.1-11,30.2-12.1c2.5-0.3,6.5,0.4,8.3,0
				c3.7-0.8,10.3-3.8,12.8-6c3-2.6,3.7-7.5,7.5-8.3c4.6-1,6.3,4.5,10.6,0.8c2.2-2,0.5-5.5,1.5-7.5c0,0,3.3-3.6,3.8-3.8
				c4.3-1.8,4.3-3.9,5.3-4.5c3.9-2.7,11.7-4.8,17.3-6.8c5.5-2,11.7-3.6,17.3-6c6-2.7,10.9-6.8,18.9-5.3c1.9,0.3,5.4,2.1,6.8,3
				c5.5,3.7,7,11.1,11.3,17.3c4.4,6.4,12.1,9.6,19.6,10.6C579.5,2144.6,588.4,2140.9,597.9,2142z M481,2136c2.3,3.6,6.4,1.3,7.5-2.3
				C485.8,2134.2,482.8,2134.5,481,2136z"/>
		</g>
		<g class="st56">
			<path class="st58" d="M403.3,2137.4c5.6-1,13.3-0.3,19.6,2.3c25,10.3,39.7,42.9,28.7,75.4c-2,5.8-5.4,12.3-9,15.8
				c-0.6,0.5-2,0.7-3,1.5c-5.4,4.6-16,9.4-26.4,5.3c-4.9-1.9-8.3-6.7-12.8-12.1c-1.8-3.3-4.8-4.5-6-6c-0.7-0.8-1.6-2.7-2.3-3.8
				c-3.5-5.7-14.8-10.4-17.2-20.1c-1.2-4.9,6.8-13.4,5.9-17.6c-0.9-4.5-1.1-10.8-0.8-15.1C380.9,2149.9,390.4,2139.7,403.3,2137.4z"
				/>
			<path class="st58" d="M589.5,2160.8c17.3-1.6,34,7.4,40,17.3c6.9,11.3,4.3,25.9-3.8,33.9c-6.8,6.8-21.6,10.4-33.2,4.5
				c-1.1-0.6-5.2-4-6-3.8c-2.3,0.7-4.3,11.3-6,13.6c-3.3,4.6-11.7,9.5-20.4,6.8c-9.6-3-17-12.8-17.3-25.6
				c-0.3-9.4,4.7-22.1,9.8-28.7C559.3,2170.3,574.5,2162.2,589.5,2160.8z"/>
		</g>
		<g class="st56">
			<path class="st59" d="M370.9,2190.4c7-1.5,22.5-0.8,33.2-0.8c51.6,0,107.5,0,159.9,0c9.9,0,20.9-0.4,32.4,0
				c11.5,0.4,19.2,3,18.1,13.6c-1,9.7-10.9,9.8-24.9,9.8c-69.8,0-134.6,0-205.1,0c-11.9,0-22.9,0.6-24.1-9.8
				C359.5,2195.3,363.8,2192,370.9,2190.4z"/>
		</g>
	</g>
	<g>
		<path class="st59" d="M501.2,2129.6c5.3-1.7,15,2.2,19,5.7c4.6,4.1,7.5,10,3.8,12.1c-4.9,2.7-7.4-4.9-9.8-6.8
			c-1.4-1.1-4.8-2.7-7.5-3.8c-1.9-0.8-6.7-0.1-7.5-3C498.1,2130.6,499.9,2130,501.2,2129.6z"/>
		<path class="st59" d="M481.4,2140c5.1-0.9,13.4,1.1,18.4,4.4c3.7,2.4,8.7,7.2,6.8,10.6c-1.4,2.5-3.9,1.3-6.8,0
			c-1.9-0.8-3.1-3.3-5.3-4.5c-2.6-1.5-16.5-2.3-15.8-7.5C478.9,2140.9,479.9,2140.2,481.4,2140z"/>
	</g>
	<path class="st48" d="M991.9,2059.2c7.5-5.3,18.2,1.8,16.6,14.3c6.8,0.3,5.8-21,11.3-21.9c9.3-1.4,1.2,11.4,1.5,17.3
		c0.2,3.8,4.1,5.8,3.8,9.8c1.8-0.5-0.1-4.6,1.5-5.3c4.2,4.5,1.9,7.6,2.3,13.6c1.3,23.3,13,52.7,13.6,77.7
		c0.3,16.2-2.7,27.8-18.1,28.7c-23,1.2-52.9,0-83.7,0c-23.9,0-49,2.3-68.6,0c-8.3-1-17.8-5.7-18.1-11.3
		c-0.4-9.2,15.6-11.6,25.6-15.1c11.2-3.9,20.4-8.1,28.7-11.3c18.5-7.2,41.7-16.5,54.3-26.4c13.4-10.5,9.3-38.2,8.3-60.3
		c3.2-1,2.4,2.1,3.8,3C968.9,2051,986.2,2039.8,991.9,2059.2z"/>
	<g>
		<defs>
			<path id="SVGID_64_" d="M991.9,2059.2c7.5-5.3,18.2,1.8,16.6,14.3c6.8,0.3,5.8-21,11.3-21.9c9.3-1.4,1.2,11.4,1.5,17.3
				c0.2,3.8,4.1,5.8,3.8,9.8c1.8-0.5-0.1-4.6,1.5-5.3c4.2,4.5,1.9,7.6,2.3,13.6c1.3,23.3,13,52.7,13.6,77.7
				c0.3,16.2-2.7,27.8-18.1,28.7c-23,1.2-52.9,0-83.7,0c-23.9,0-49,2.3-68.6,0c-8.3-1-17.8-5.7-18.1-11.3
				c-0.4-9.2,15.6-11.6,25.6-15.1c11.2-3.9,20.4-8.1,28.7-11.3c18.5-7.2,41.7-16.5,54.3-26.4c13.4-10.5,9.3-38.2,8.3-60.3
				c3.2-1,2.4,2.1,3.8,3C968.9,2051,986.2,2039.8,991.9,2059.2z"/>
		</defs>
		<use xlink:href="#SVGID_64_"  style="overflow:visible;fill-rule:evenodd;clip-rule:evenodd;fill:#F5D3B3;"/>
		<clipPath id="SVGID_65_">
			<use xlink:href="#SVGID_64_"  style="overflow:visible;"/>
		</clipPath>
		<g class="st60">
			<path class="st3" d="M1077.4,2067.6c10.3-0.8,18.3,1.6,18.9,11.3c1,15.8-21,16.1-38.5,18.1c-18.3,2.1-38.1,3.7-52.8,3.8
				c-19.4,0.1-53.6,4.8-50.5-16.6c2.5-17.2,42.5-9.9,58.1-10.6C1037.1,2072.5,1056.6,2069.2,1077.4,2067.6z"/>
			<radialGradient id="SVGID_66_" cx="1004.079" cy="2134.6123" r="60.2901" gradientUnits="userSpaceOnUse">
				<stop  offset="0.3022" style="stop-color:#FFFFFF"/>
				<stop  offset="0.5651" style="stop-color:#FEF6EF"/>
				<stop  offset="1" style="stop-color:#FBE1CB"/>
			</radialGradient>
			<path class="st61" d="M1064.4,2134.6c0,33.3-27,60.3-60.3,60.3c-33.3,0-60.3-27-60.3-60.3c0-33.3,27-60.3,60.3-60.3
				C1037.4,2074.3,1064.4,2101.3,1064.4,2134.6z"/>
			<g>
				<path class="st57" d="M1048.7,2142c0.6,3.6-2.6,3.5-4.5,4.5c12.4,2.8,6.1,12.7,1.5,19.6c1.6,2.4,3.5-3.9,6-0.8
					c2.1,2.4-1.9,6-1.5,8.3c1,5.4,10.1,7.6,7.5,18.9c-1.6,7.3-8.9,9.8-16.6,12.1c-2.7,0.8-7.4,0.8-10.6,2.3
					c-3.1,1.4-2.8,6.3-8.3,7.5c-3.3,0.7-3.6-2-7.5-2.3c-1.8-0.1-4.8,1.9-7.5,2.3c-9.5,1.2-23.2-2-33.2-1.5
					c-4.8,0.3-15.6,0.9-18.1,2.3c-3,1.7-2.1,8.3-8.3,9.1c-2.7,0.3-3.8-2.5-6-2.3c-3.6,0.5-4.6,4.4-9.8,3.8c-3.8-0.5-6.1-2.8-7.5-8.3
					c-6,2.3-7,2.4-9.8,1.5c-5.2-1.5-4.5-7.9-6.8-9c-2.5-1.3-8.4-0.2-12.8,0c-13.5,0.7-35.1,5.8-46.8,6.8c-4.7,0.4-11.1,1.2-14.3,0
					c-2.7-1-2.5-4.7-5.3-6c-5.1-2.4-11.3,0.4-14.3-4.5c-5.5-8.9,4.3-13.1,10.6-17.3c13.5-9.2,32-25.8,55.8-28.7
					c8.6-1,15.5-1.2,21.1-6c2.9-2.5,3.2-7.4,7.5-8.3c4.7-1,6.3,4.5,10.6,0.8c2.2-2,0.5-5.5,1.5-7.5c1.1-2.2,3.9-1.8,6-3.8
					c2-1.8,2.1-3.9,3-4.5c9.3-6.3,22.5-7.5,34.7-12.8c6-2.6,10.9-6.8,18.9-5.3c9.7,1.8,12.1,11.7,18.1,20.4
					C1011.7,2147,1030.7,2142.8,1048.7,2142z M931.8,2135.9c2.3,3.6,6.4,1.3,7.5-2.3C936.6,2134.1,933.6,2134.4,931.8,2135.9z"/>
			</g>
			<g>
				<path class="st58" d="M867.7,2144.3c8.7-1.4,15.8,2.1,22.6,6c12.8,7.4,28.1,27.2,30.2,46c1.2,11.3,0,22.2-3.8,30.2
					c-6.4,13.5-25.5,24.6-40,12.8c-0.9-0.8-1.9-1.8-3-2.3c-2.6-1-5.1-0.4-6.8-0.8c-2.5-0.6-5.3-1.5-7.5-3c-6-4-11.1-13.5-12.1-23.4
					c-0.6-6.1,1.7-13-1.5-19.6c-2.8-5.8-10.3-7-12.8-12.8c-5-11.5,2.9-23.4,14.3-26.4c2-0.5,4.6,0,6.8-0.8c2.5-0.9,3.5-2.7,5.3-3.8
					C861.7,2145.2,864.1,2144.8,867.7,2144.3z"/>
				<path class="st58" d="M1060,2157.1c20.2,0.1,32.7,9.8,36.2,18.9c7.8,19.9-7.8,36.6-25.6,35.4c-3.9-0.3-6.8-1.7-9.8-3
					c-2.6-1.2-4.8-3.3-9-3.8c-19.7-2-19.7,18.4-33.9,20.4c-18.1,2.4-27.3-17-20.4-33.9c2-4.8,6.6-11,9.8-14.3
					C1017.6,2166.1,1038.7,2157.4,1060,2157.1z"/>
			</g>
			<g>
				<path class="st59" d="M808.9,2182.5c17.6-4.1,47.4-0.8,67.9-0.8c55.6,0,109.6,0,167.4,0c15.9,0,25,0.6,23.4,13.6
					c-1.9,15.3-42.3,9.8-61.8,9.8c-48.6,0-91.4,0-143.3,0c-20.5,0-60.6,4.4-63.3-8.3C797.3,2188.3,802.1,2184.1,808.9,2182.5z"/>
			</g>
		</g>
	</g>
	<g>
		<path class="st59" d="M955.9,2128.1c8.8-5.4,31,12.7,22.6,17.3c-3.5,2-12-8.4-17.3-10.6C958.9,2134,949.1,2132.3,955.9,2128.1z"/>
		<path class="st59" d="M936.3,2138.7c5.9-3,29.5,6.2,24.9,14.3c-2.9,5.2-6.3-1.3-12.1-4.5C945.3,2146.3,925.7,2144.1,936.3,2138.7z
			"/>
	</g>
	<g>
		<defs>
			<path id="SVGID_67_" d="M766.2,1446.5c1.2-6.7,1-12.3,3-18.9c1.9-6.1,7.4-9.4,8.3-14.3c1.4-7.3-2.7-18.3-1.5-27.9
				c3.5-27.4,40.9-31.9,50.5-6.8c-2.3-23.9-4.6-58.6-0.8-84.5c1.3-8.8,4.9-16.3,6-23.4c4.1-25.5-7.7-68.4,24.1-57.3
				c-4-9.1-3.9-14.9-8.3-24.1c-2.8-6-17.8-19.9-11.3-26.4c7.9-7.9,17.9,9.3,20.4,13.6c12.5,21.9,19.7,56.9,26.4,83.7
				c10,40.3,15.9,82.1,19.6,126.7c7.6,91.1,40.3,156,68.6,224.7c14.4,34.9,31.1,66.7,46.8,100.3c15.4,33.1,26.7,69.3,33.9,112.4
				c6.7,39.9,6.5,91,0.8,135.7c-4.7,36.7-11.1,71.9-15.8,112.4c-0.5,4.3-1.8,15.5-2.3,15.8c-1.5,1.4-13.1,0.5-17.3,0.8
				c-13.1,0.8-19.2,0.3-33.2,0c-5.1-0.1-14.9,0.5-16.6-0.8c-1.9-1.4-4.8-20.9-6.8-28.7c-16.2-64.5-41.9-122.9-64.1-179.5
				c-25.8-65.9-57-129.1-83-196.1c-12.4-32-22.9-69.3-30.2-109.3c-19.4-107.2-47.8-205.2-81.4-302.4c-0.5-1.3-11-22.2-7.5-25.6
				c3.2-3.2,7.2,7.5,7.5,8.3C728.8,1314.7,747.7,1380,766.2,1446.5z"/>
		</defs>
		<use xlink:href="#SVGID_67_"  style="overflow:visible;fill-rule:evenodd;clip-rule:evenodd;fill:#4F5085;"/>
		<clipPath id="SVGID_68_">
			<use xlink:href="#SVGID_67_"  style="overflow:visible;"/>
		</clipPath>
		<g class="st62">
			<g class="st63">
				<path class="st3" d="M899.6,1302c15.5-3.8,33.7-24,46.8-31.7c7.2-4.2,23.6-9,27.9,0.8c7.8,17.8-15.8,32.9-24.1,39.2
					c-17.5,13.3-36.5,26.1-61.8,33.2c-4.8,1.3-11.7,0.8-15.8,3c-4.4,2.3-13.4,20.3-16.6,26.4c-14.5,28.2-27.4,59.7-39.2,89
					c-11.6,28.7-23.7,60.3-33.9,95c-2.6,8.9-6.7,27.2-15.1,27.1c-8.5-0.1-10.7-16.3-11.3-25.6c-1.3-19.3,5.8-40.1,10.6-58.8
					c13.1-51,31.6-92.3,51.3-138c1.8-4.1,5.1-8.7,5.3-11.3c0.2-4.2-6.1-4.6-4.5-14.3c0.4-2.5,2.5-5.2,6-7.5c2.8-1.9,7.5-1.8,9.8-3.8
					c2.4-2,5.6-11.6,8.3-17.3c8.4-17.7,15.6-32.3,24.9-49.8c11.3-21.2,23.8-51.4,42.2-58.8c4.6-1.9,11.9,1.5,13.6,4.5
					c6.4,11.1-4.5,30.6-9,40c-2.7,5.5-5,11.1-8.3,17.3c-2.8,5.3-9.1,13.8-9.1,16.6c0,3,4.8,6.4,5.3,11.3
					C903.1,1293.4,902.2,1295.6,899.6,1302z"/>
			</g>
			<radialGradient id="SVGID_69_" cx="747.7112" cy="1303.2589" r="553.2321" gradientUnits="userSpaceOnUse">
				<stop  offset="0" style="stop-color:#000000"/>
				<stop  offset="1" style="stop-color:#808080"/>
			</radialGradient>
			<circle class="st64" cx="747.7" cy="1303.3" r="553.2"/>
			<g class="st65">
				<path class="st66" d="M818.2,1378.1c18,69.9,37.6,131.4,63.3,191.5c12.5,29.2,30,55.4,43,83.7c65.3,141.8,86.1,338.7,76.2,551.2
					c-4-20.3-2.3-41.1-2.3-61.1c0-61.1,0.9-123.5-4.5-183.3c-10.2-112.3-32.8-221-72.4-305.4c-13.3-28.4-29.5-54.7-42.2-83.7
					c-12.5-28.5-23.1-60.4-33.9-92C834.2,1446.8,822.1,1414.3,818.2,1378.1z"/>
				<path class="st66" d="M793.3,1707.6c0.4,10.9,9.7,12.9,12.8,21.1c-17.2,2.8-27.6-7.8-24.9-22.6c1.1-6.2,11.2-10.7,6.8-19.6
					c-1.6-3.2-8.4-4.5-9.8-6c-3.5-3.9-4.8-9.8-4.5-14.3c0.3-3.9,3.6-5.9,5.3-10.6c0.9-2.3,0-5.1,0.8-6.8c1.4-3.1,5.1-5,6-8.3
					c1-3.6-1.8-9.5,0-12.8c1.5-2.8,14.7-5.6,16.6-6c29.9-7.1,65.7,8.1,65.6,38.5c-0.1,25.5-23.2,38.9-43.7,48.3
					c-4.7,2.1-16.6,9.7-21.1,9C797.9,1716.7,798.6,1711.1,793.3,1707.6z M791.8,1677.4c2.2-0.1,2.8-1.7,3.8-3
					C794,1675.1,791.1,1674.4,791.8,1677.4z"/>
			</g>
		</g>
	</g>
	<g>
		<defs>
			<path id="SVGID_70_" d="M592.2,2103.9c-14-2.8-34.9-5.7-51.3-9.8c-3.8-0.9-14.5-3.3-15.1-4.5c-0.7-1.4,5.4-19.5,6.8-25.6
				c13.4-60.6,22.2-130.2,30.2-196.1c9.5-78.8,11.9-162.3,23.4-234.5c5.5-34.2,17.4-70.2,27.9-101.8
				c26.7-80.7,45.2-168.8,61.8-260.9c3.4-18.7,3.5-39.7,9-55.1c3.4-9.4,21.1-19.9,34.7-25.6c26.4-11.1,67.5-16.6,98.8-3.8
				c6.5,2.7,12.3,6.9,18.9,10.6c10.6,6,17.5,8.5,21.9,20.4c6.4,17.5,0.2,42.8-4.5,63.3c-4.7,20.8-9.7,40.8-14.3,58.1
				c-21.9,81.4-58.3,130.8-72.4,217.2c-6.8,41.5-9.2,85.6-13.6,130.5c-4.7,48.2-3.5,93.9-9.8,135c-6.1,40-18.1,76.8-33.2,111.6
				c-13.7,31.8-35.2,60.1-55.8,89c-14,19.6-30,42.5-46,62.6C604.1,2091.2,597.6,2098.4,592.2,2103.9z"/>
		</defs>
		<use xlink:href="#SVGID_70_"  style="overflow:visible;fill-rule:evenodd;clip-rule:evenodd;fill:#7A7BB2;"/>
		<clipPath id="SVGID_71_">
			<use xlink:href="#SVGID_70_"  style="overflow:visible;"/>
		</clipPath>
		<g class="st67">
			<path class="st68" d="M656.3,1281.5c2.4-0.8-3.3-1.6,6.8-0.8c9.5,0.8,19.7,7.5,30.2,12.1c37.3,16.2,92.3,28.1,145.5,18.1
				c12.4-2.3,26.8-10.5,39.2-8.3c9.7,1.7,18.2,12.1,15.8,25.6c-3.4,19.3-36.7,22.7-59.6,25.6c-69.9,8.9-127.3-9-167.4-39.2
				C659.6,1309.3,636.4,1287.7,656.3,1281.5z"/>
			<g class="st65">
				<path class="st5" d="M560.5,1527.1c20.7-4.6,43.3,10,55.8,20.4c11,9.2,24.4,24.3,27.1,43.7c5.2,37.3-27.5,57.4-64.9,53.5
					c-13-1.3-37.8-10.7-33.2-27.1c1.7-6.3,7.8-8,12.1-8.3c5-0.3,13.6,4.5,16.6,3c2.3-1.1,4.9-13.3,5.3-18.9c0.3-4-1.3-9.6-1.5-14.3
					c-0.2-3.4,1.5-10.5,1.5-10.6c-2-4.1-18.6-4.4-23.4-6.8C544,1555.8,540.1,1531.6,560.5,1527.1z"/>
				<path class="st5" d="M770.9,1299.3c-30.1,107.9-76,209.2-82.2,340.8c-2,43.2-5.1,86-12.8,128.2c-14,76.8-42.9,142.5-69.4,212.7
					c-18.8,49.8-38.2,102.1-55.8,155.3c-6.3,19-10.4,37.9-18.9,53.5c31.1-111.3,72.5-212.7,110.9-316c13-35.1,22.8-70.7,30.2-110.1
					c7.8-42,10.8-84.8,13.6-127.4c5.6-86,25.5-162.1,49-232.3C747.2,1369,756,1333.2,770.9,1299.3z"/>
			</g>
			<radialGradient id="SVGID_72_" cx="496.6743" cy="2095.3887" r="553.2307" gradientUnits="userSpaceOnUse">
				<stop  offset="0.1813" style="stop-color:#000000"/>
				<stop  offset="1" style="stop-color:#808080"/>
			</radialGradient>
			<circle class="st69" cx="496.7" cy="2095.4" r="553.2"/>
		</g>
	</g>
	<g>
		<defs>
			<path id="SVGID_73_" d="M677.2,1228c-39,10.6-64.7-14-77.7-40.7c-10-20.6-13.1-51-30.2-66.4c-7.7-7-20.5-11.9-26.4-18.1
				c-10.9-11.4-11.5-27.1-16.6-44.5c-4.7-16.1-16.3-25.3-23.4-36.2c26.1-16.8,54.5-32.6,83.7-49c3.9-2.2,10.2-6.8,12.1-6.8
				c4.4,0,17.6,10.8,21.1,13.6c19.9,15.5,36.4,33.5,53.5,50.5c16.4-27.3,33.5-53.5,53.5-76.9c39.6-46.2,79.3-94.2,132.7-128.2
				c26-16.6,54.8-34.8,85.2-45.2c3.5-1.2,6.1,9.6,9,17.3c6.7,17.4,13.6,36.4,18.9,53.5c7.9,25.9,15.6,50.9,17.3,79.2
				c2.3,37.3-11.9,71.4-23.4,101c-19.9,51.6-46.2,104.9-55.8,165.1c-3.8,23.7-5.6,49.4-3.8,77.7c0.4,7,4.4,18.8,3,24.1
				c-1.5,5.8-18.9,11.2-27.1,14.3c-29.8,11.2-68,15.9-106.3,12.8c-44.2-3.6-73.8-18-107.1-35.4c-4.1-2.1-12.3-6-12.8-7.5
				c-1.3-4.2,8.9-22.9,10.6-27.2C671.4,1244.8,673.6,1236.7,677.2,1228z"/>
		</defs>
		<use xlink:href="#SVGID_73_"  style="overflow:visible;fill-rule:evenodd;clip-rule:evenodd;fill:#50324B;"/>
		<clipPath id="SVGID_74_">
			<use xlink:href="#SVGID_73_"  style="overflow:visible;"/>
		</clipPath>
		<g class="st70">
			<path class="st71" d="M861.8,1030.1c-5.6,16.8-23,41.8-35.7,58.6c-11.6,15.4-23.1,32.2-35.5,46.5c-5.4,6.3-13.7,12.1-20.4,18.1
				c-5.6,5-16.9,12.9-19.6,18.1c-2.9,5.6,0.3,8.1-0.8,12.8c-1.6,6.8-13.7,15-20.4,19.6c-17.4,12.1-30.9,20.2-50.5,29.4
				c-8.9,4.2-20.5,11.2-30.2,9.1c-3.2-0.7-5.1-4.7-8.3-6.8c-4.2-2.8-9-3.5-12.8-6c-16.3-11-32-29.4-43-49
				c-4.4-7.8-10.5-18.9-10.6-26.4c0-2.1,3.3-6.9,3-9c-0.8-5.8-11.1-9.7-17.3-12.1c7.8-10.6,19.9,0.8,26.4,3.8
				c29.5,13.5,43,40.2,89.7,37.7c44.9-2.4,74.4-31.4,103.3-55.1C810.1,1094.2,840.3,1060.4,861.8,1030.1z"/>
		</g>
		
			<radialGradient id="SVGID_75_" cx="919.0544" cy="1367.6616" r="442.8598" gradientTransform="matrix(0.5459 0.2583 -0.4276 0.9039 1039.2275 -224.0837)" gradientUnits="userSpaceOnUse">
			<stop  offset="0.1813" style="stop-color:#000000"/>
			<stop  offset="1" style="stop-color:#808080"/>
		</radialGradient>
		<path class="st72" d="M1197.9,1363.9C1093.3,1585,900.3,1713,766.7,1649.9c-133.5-63.2-157-293.6-52.4-514.7
			c104.6-221.1,297.6-349.1,431.1-286C1279,912.4,1302.5,1142.8,1197.9,1363.9z"/>
		
			<radialGradient id="SVGID_76_" cx="908.1497" cy="1101.8613" r="269.1342" gradientTransform="matrix(0.5459 0.2583 -0.4276 0.9039 1039.2275 -224.0837)" gradientUnits="userSpaceOnUse">
			<stop  offset="0.1813" style="stop-color:#000000"/>
			<stop  offset="1" style="stop-color:#808080"/>
		</radialGradient>
		<path class="st73" d="M1210.8,1076c-63.6,134.4-180.9,212.2-262,173.8c-81.1-38.4-95.4-178.4-31.8-312.8
			c63.6-134.4,180.9-212.2,262-173.8C1260.1,801.6,1274.3,941.6,1210.8,1076z"/>
		
			<radialGradient id="SVGID_77_" cx="753.6491" cy="1066.7535" r="269.1204" gradientTransform="matrix(0.2837 0.2322 -0.6334 0.7738 1252.4844 -158.0638)" gradientUnits="userSpaceOnUse">
			<stop  offset="0.1813" style="stop-color:#FFFFFF"/>
			<stop  offset="0.2583" style="stop-color:#F1F1F1"/>
			<stop  offset="0.6079" style="stop-color:#B4B4B4"/>
			<stop  offset="0.865" style="stop-color:#8E8E8E"/>
			<stop  offset="1" style="stop-color:#808080"/>
		</radialGradient>
		<path class="st74" d="M867,904.9c-94.1,115-204.7,180.3-246.8,145.8c-42.2-34.5,0-155.7,94.1-270.7
			c94.1-115,204.7-180.3,246.8-145.8C1003.2,668.6,961.1,789.9,867,904.9z"/>
		
			<radialGradient id="SVGID_78_" cx="1124.7823" cy="1011.0362" r="269.1209" gradientTransform="matrix(0.3574 8.160000e-02 -0.2619 1.1461 812.5689 -60.5854)" gradientUnits="userSpaceOnUse">
			<stop  offset="0.3736" style="stop-color:#FFFFFF"/>
			<stop  offset="0.5031" style="stop-color:#D8D8D8"/>
			<stop  offset="0.651" style="stop-color:#B2B2B2"/>
			<stop  offset="0.7879" style="stop-color:#969696"/>
			<stop  offset="0.9086" style="stop-color:#868686"/>
			<stop  offset="1" style="stop-color:#808080"/>
		</radialGradient>
		<path class="st75" d="M1046,1211.9c-38.9,170.4-113.5,298.6-166.7,286.5c-53.1-12.1-64.6-160.1-25.7-330.4
			s113.5-298.6,166.6-286.5C1073.4,893.6,1084.9,1041.6,1046,1211.9z"/>
		
			<radialGradient id="SVGID_79_" cx="847.5386" cy="843.5636" r="269.1227" gradientTransform="matrix(0.2837 0.2322 -0.6334 0.7738 1252.4844 -158.0638)" gradientUnits="userSpaceOnUse">
			<stop  offset="0.1813" style="stop-color:#FFFFFF"/>
			<stop  offset="0.2583" style="stop-color:#F1F1F1"/>
			<stop  offset="0.6079" style="stop-color:#B4B4B4"/>
			<stop  offset="0.865" style="stop-color:#8E8E8E"/>
			<stop  offset="1" style="stop-color:#808080"/>
		</radialGradient>
		<path class="st76" d="M1035,754c-94.1,115-204.6,180.3-246.8,145.8c-42.2-34.5,0-155.7,94.1-270.7
			c94.2-115,204.7-180.3,246.8-145.8C1171.3,517.7,1129.1,639,1035,754z"/>
		
			<radialGradient id="SVGID_80_" cx="646.5865" cy="1745.4705" r="269.1042" gradientTransform="matrix(0.2837 0.2322 -0.1996 0.2438 804.3342 389.0964)" gradientUnits="userSpaceOnUse">
			<stop  offset="0.1813" style="stop-color:#FFFFFF"/>
			<stop  offset="0.2583" style="stop-color:#F1F1F1"/>
			<stop  offset="0.6079" style="stop-color:#B4B4B4"/>
			<stop  offset="0.865" style="stop-color:#8E8E8E"/>
			<stop  offset="1" style="stop-color:#808080"/>
		</radialGradient>
		<path class="st77" d="M715.7,1027.3c-29.7,36.2-87.9,37.6-130.1,3.1c-42.2-34.5-52.3-91.9-22.6-128.1c29.7-36.2,87.9-37.6,130-3.1
			C735.2,933.7,745.4,991,715.7,1027.3z"/>
		
			<radialGradient id="SVGID_81_" cx="1024.4535" cy="2478.812" r="269.1042" gradientTransform="matrix(0.2837 0.2322 -0.1996 0.2438 804.3342 389.0964)" gradientUnits="userSpaceOnUse">
			<stop  offset="0.1813" style="stop-color:#FFFFFF"/>
			<stop  offset="0.2583" style="stop-color:#F1F1F1"/>
			<stop  offset="0.6079" style="stop-color:#B4B4B4"/>
			<stop  offset="0.865" style="stop-color:#8E8E8E"/>
			<stop  offset="1" style="stop-color:#808080"/>
		</radialGradient>
		<path class="st78" d="M676.5,1293.8c-29.7,36.2-87.9,37.6-130.1,3.1c-42.2-34.5-52.3-91.9-22.6-128.1c29.7-36.2,87.9-37.6,130-3.1
			C696.1,1200.2,706.2,1257.6,676.5,1293.8z"/>
		<g class="st79">
			<path class="st80" d="M890.5,789.7c6.1-3.2,9,12.1,10.6,15.8c3.3,7.9,5.4,11.8,9,15.8c8.5,9.4,28.4,16.6,37.7,31.7
				c21.3,34.4,7.6,100.2,11.3,151.6c1,13.8,6.1,27.9,12.8,32.4c13.6,9.3,35.7-3.3,34.7,19.6c-1.1,24.2-40.8,13.5-52.8,5.3
				c-25-17.1-27-55.9-24.9-100.3c1.6-32.9,6.4-73.6-5.3-96.5c-5.6-11-18.8-16.7-27.2-29.4c-6-9.2-13.8-31.5-7.5-44.5
				C889.4,790.4,889.7,790.1,890.5,789.7z"/>
			<path class="st80" d="M621.3,951.1c-1.9,14.8-10.5,26.2-18.9,35.4c-20.7,22.7-48.9,41.3-77.7,58.1c-2.9,1.7-14.1,10.2-18.1,5.3
				c-5.1-6.3,6.4-12.5,9.8-15.1c0.1-0.1,11.1-8.5,15.1-11.3c20.2-14.3,42.1-31.6,58.1-47.5C597.6,968.1,611.4,951.1,621.3,951.1z"/>
			<path class="st80" d="M678.6,992.6c1.6,8.2-12.2,22.5-10.6,28.7c-0.1-0.5,7.1,5.3,6.8,0c-1.3,10.4-8.5,18.6-12.8,28.7
				c-12.5,29.6-20.5,65.1-27.9,101c-1.3-31.4,7.8-60.8,16.6-89.7C658.5,1035.4,666.5,1011.4,678.6,992.6z"/>
			<path class="st80" d="M561,1117.7c-5.8,2.5-28.7-11.1-17.3-12.1c14.8,2.5,38.2,3,46,13.6c9,12.1,9.1,28.6,7.5,47.5
				c-0.6,6.7,0.3,17.9-8.3,18.1c-8.4,0.2-7.7-8-8.3-18.1c-0.6-10.6-1.8-23.2-7.5-31.7C567.1,1126.3,558.5,1130.1,561,1117.7z"/>
			<path class="st80" d="M860.4,1031c-11.2,26.4-28.6,50.1-45.2,73.1c-42.2,58.3-85.5,112.3-141.8,157.6
				c-10.9,8.8-21,19.9-34.7,24.9c-1.9-5.6,8.9-7.9,9.8-11.3c0.5-1.9-2.4-4.5-1.5-6.8c1.5-4,7.6-5.4,10.6-9.1
				c-14-3.6,7.7-13.4,10.6-18.1c-2.6,0.8-4.8,3.3-8.3,2.3c-1.2-0.4-4.5-6.6-4.5-6c0.4-3.7,13.2-7,17.3-9.1
				c39-19.2,71.7-50.7,98.8-80.7C805.5,1110.1,833.9,1069.9,860.4,1031z"/>
		</g>
	</g>
	<g>
		<defs>
			<path id="SVGID_82_" d="M548.6,903.3c16.2,4.6,25.5,13.7,40,24.9c5.5,4.2,12,8.6,18.1,13.6c5.2,4.2,17.2,13,17.3,14.3
				c0.6,4.6-22.3,22.1-25.6,24.9c-24,20.4-44.1,35.2-73.9,52c-3.4,1.9-13.8,9.5-16.6,8.3c-2.2-1-7.3-18.1-8.3-21.1
				c-4.7-14.2-8.9-30.9-12.1-45.3c-1.5-6.7-5.7-19.4-4.5-24.1c1.6-6.5,26.7-19.4,32.4-23.4c13.3-9.3,21.6-16.8,31.7-23.4
				C547.6,903.7,547.9,903.4,548.6,903.3z"/>
		</defs>
		<use xlink:href="#SVGID_82_"  style="overflow:visible;fill-rule:evenodd;clip-rule:evenodd;fill:#FEF8EA;"/>
		<clipPath id="SVGID_83_">
			<use xlink:href="#SVGID_82_"  style="overflow:visible;"/>
		</clipPath>
		
			<radialGradient id="SVGID_84_" cx="326.46" cy="849.2382" r="138.9093" gradientTransform="matrix(0.5504 -0.2541 0.3487 0.7554 84.6771 391.9201)" gradientUnits="userSpaceOnUse">
			<stop  offset="0.3022" style="stop-color:#FFFFFF"/>
			<stop  offset="0.5651" style="stop-color:#FEF6EF"/>
			<stop  offset="1" style="stop-color:#FBE1CB"/>
		</radialGradient>
		<path class="st81" d="M636.9,915.2c26.8,58,14.2,120.7-28,140.2c-42.2,19.5-98.1-11.7-124.9-69.6c-26.8-58-14.2-120.7,28-140.2
			C554.3,826.1,610.2,857.2,636.9,915.2z"/>
		<g class="st82">
			<path class="st48" d="M477.5,939.3c6.4-2.9,8.6,13.4,10.6,20.4c4.8,17.3,8.5,28.9,15.1,43.7c2.5,5.5,7,18.5,9.8,19.6
				c3.4,1.3,17.8-4.8,23.4-6.8c22.2-8,42.1-20.9,58.8-31.7c17.9-11.5,33-25.6,52-38.5c1.9-1.3,17-11.1,21.1-5.3
				c4.7,6.7-7,17.6-9.8,20.4c-15.9,15.4-35.8,27.6-52,38.5c-20.1,13.4-41.3,28.4-70.1,35.4c-4.5,1.1-12.7,2.1-12.8,2.3
				c-1.7,1.8,9.3,15.6,12.8,20.4c3.6,4.8,18.6,23.1,4.5,27.2c-12.7,3.7-22.5-17-27.9-25.6c-13.5-21.6-25.1-44.4-32.4-73.1
				C478.4,977.5,468.8,943.2,477.5,939.3z"/>
		</g>
	</g>
	<g>
		<path class="st83" d="M576.5,930.9c11.1-2.6,12.1,13.8,3,15.1C571.2,947.1,565.6,933.4,576.5,930.9z"/>
	</g>
	<path class="st49" d="M927.3,662.3c-3.3,9.8-7.1,17.2-13.6,21.9c-1.8,1.3-8.4,2.6-9,3.8c-1.1,2.2,2.4,6.4,1.5,9
		c-0.5,1.5-16.4,12.7-18.9,14.3c-12.5,8.3-29.8,16.2-43.7,22.6c-8.2,3.8-28,14.7-40,6.8c-6.8-4.5-10.1-19.9-12.1-29.4
		c-2.3-10.9-4.3-25.9-4.5-37c-0.2-7.2-1-8.8,1.8-15.2c0.5-1.1,2.3-6.9,2.7-7.4c1.3-1.4,1.1-3.7,1.7-5.7c1.8-6.2,2.3-14.2,4.4-21.4
		c1.9-6.4,7.4-18.5,12.1-22.6c2-1.7,7.2-3.9,10.6-6c28-18.1,82.9-19.3,86.7,23.4c0.1,1.4-1.1,10.6,0,12.1c2.6,3.6,9.7-0.6,13.6,0
		C931,633,947.7,661.6,927.3,662.3z"/>
	<g>
		<defs>
			<path id="SVGID_85_" d="M927.3,662.3c-3.3,9.8-7.1,17.2-13.6,21.9c-1.8,1.3-8.4,2.6-9,3.8c-1.1,2.2,2.4,6.4,1.5,9
				c-0.5,1.5-16.4,12.7-18.9,14.3c-12.5,8.3-29.8,16.2-43.7,22.6c-8.2,3.8-28,14.7-40,6.8c-6.8-4.5-10.1-19.9-12.1-29.4
				c-2.3-10.9-4.3-25.9-4.5-37c-0.2-7.2-1-8.8,1.8-15.2c0.5-1.1,2.3-6.9,2.7-7.4c5.2-5.9,3.2-17.6,6-27.2
				c1.9-6.4,7.4-18.5,12.1-22.6c2-1.7,7.2-3.9,10.6-6c28-18.1,82.9-19.3,86.7,23.4c0.1,1.4-1.1,10.6,0,12.1c2.6,3.6,9.7-0.6,13.6,0
				C931,633,947.7,661.6,927.3,662.3z"/>
		</defs>
		<clipPath id="SVGID_86_">
			<use xlink:href="#SVGID_85_"  style="overflow:visible;"/>
		</clipPath>
		
			<radialGradient id="SVGID_87_" cx="688.8723" cy="658.7291" r="139.5479" gradientTransform="matrix(0.9389 -0.3443 0.2356 0.6423 4.7671 461.8057)" gradientUnits="userSpaceOnUse">
			<stop  offset="0" style="stop-color:#FFFFFF"/>
			<stop  offset="0.4157" style="stop-color:#FFFDFD"/>
			<stop  offset="0.5654" style="stop-color:#FEF8F6"/>
			<stop  offset="0.6721" style="stop-color:#FDEDEB"/>
			<stop  offset="0.7585" style="stop-color:#FBDFDA"/>
			<stop  offset="0.8324" style="stop-color:#F9CCC4"/>
			<stop  offset="0.8979" style="stop-color:#F6B5A8"/>
			<stop  offset="0.9556" style="stop-color:#F39A89"/>
			<stop  offset="1" style="stop-color:#F0806B"/>
		</radialGradient>
		<path class="st84" d="M937.8,599.7c18.2,49.5-25.8,111.1-98.1,137.7c-72.4,26.5-145.7,7.9-163.9-41.6
			c-18.2-49.5,25.8-111.1,98.1-137.7C846.2,531.6,919.6,550.2,937.8,599.7z"/>
		
			<radialGradient id="SVGID_88_" cx="818.7449" cy="702.2365" r="139.5507" gradientTransform="matrix(0.9389 -0.3443 0.2356 0.6423 4.7671 461.8057)" gradientUnits="userSpaceOnUse">
			<stop  offset="0" style="stop-color:#F0806B"/>
			<stop  offset="4.072726e-03" style="stop-color:#F0816C"/>
			<stop  offset="0.171" style="stop-color:#F5A799"/>
			<stop  offset="0.3394" style="stop-color:#F8C7BE"/>
			<stop  offset="0.5069" style="stop-color:#FBDFDA"/>
			<stop  offset="0.6734" style="stop-color:#FDF1EF"/>
			<stop  offset="0.8383" style="stop-color:#FFFBFB"/>
			<stop  offset="1" style="stop-color:#FFFFFF"/>
		</radialGradient>
		<path class="st85" d="M1070,582.9c18.2,49.5-25.8,111.1-98.1,137.7c-72.4,26.5-145.7,7.9-163.9-41.6
			c-18.2-49.5,25.8-111.1,98.1-137.7C978.4,514.8,1051.8,533.4,1070,582.9z"/>
	</g>
	<g>
		<defs>
			<path id="SVGID_89_" d="M927.3,662.3c-3.3,9.8-7.1,17.2-13.6,21.9c-1.8,1.3-8.4,2.6-9,3.8c-1.1,2.2,2.4,6.4,1.5,9
				c-0.5,1.5-16.4,12.7-18.9,14.3c-12.5,8.3-29.8,16.2-43.7,22.6c-8.2,3.8-28,14.7-40,6.8c-6.8-4.5-10.1-19.9-12.1-29.4
				c-2.3-10.9-4.3-25.9-4.5-37c-0.2-7.2-1-8.8,1.8-15.2c0.5-1.1,2.3-6.9,2.7-7.4c5.2-5.9,3.2-17.6,6-27.2
				c1.9-6.4,7.4-18.5,12.1-22.6c2-1.7,7.2-3.9,10.6-6c28-18.1,82.9-19.3,86.7,23.4c0.1,1.4-1.1,10.6,0,12.1c2.6,3.6,9.7-0.6,13.6,0
				C931,633,947.7,661.6,927.3,662.3z"/>
		</defs>
		<clipPath id="SVGID_90_">
			<use xlink:href="#SVGID_89_"  style="overflow:visible;"/>
		</clipPath>
		<g class="st86">
			<path class="st45" d="M807,609.9c2-0.9-3.5-4.4-0.8-6c9.4,1.9,9.9,7.5,18.1,8.3c13.8,1.3,40.7-7.7,49.8-14.3
				c5.1-3.7,7.2-9.1,12.1-11.3c1.7-0.8,3.6,0.1,5.3-0.8c3.4-1.8,8.8-9.3,12.8-5.3c5.4,5.4-11.5,14.3-14.3,17.3c-2.2,2.4-2.6,5-3.8,6
				c-2.4,2.3-7.1,3.9-8.3,5.3c-4,4.5-5.5,14.2-4.5,20.4c0.3,2.2,2.5,4.9,2.3,6c-0.3,1.3-5.4,5.3-5.3,5.3c-3.1-0.4-6-9.8-6-16.6
				c0-7.3,4.1-11.8-4.5-9c-11,3.5-23.9,8.2-40.7,6.8c-4.7-0.4-25.4-4.4-21.1-12.1C799.4,607.4,803.9,608.6,807,609.9z"/>
			<path class="st45" d="M919.4,612.2c-10.6,9.5-27.3,12.9-39.2,21.1C879,615.4,900.2,605.1,919.4,612.2z"/>
			<path class="st45" d="M835.7,643.8c-6.1-3.3-17.5-10.3-24.9-5.3c1,1.9,3.3-1.1,5.3-0.8c-2.7,1.5-5.3,10.3-9,8.3
				c-4.9-2.6,0.7-9.5,0.8-10.6c0-0.1-4.6-7.1,0-9.8C817.4,620.1,833.7,637.9,835.7,643.8z"/>
		</g>
		<g class="st86">
			<path class="st87" d="M810.7,687c3.6,0.4-0.3,3-0.8,3.8c-2.4,4.1-6.8,10.2-11.3,13.6c-2.3,1.7-5.6,2.2-7.5,3.8
				c-0.9,0.8-1.2,2.7-2.3,3c-0.1-2.4-5.7-5.3-0.8-6c0.6-2.6-3.1-1-2.3-3.8c3.6,0.1,4.8-4.2,7.5-6C798.6,691.7,807.4,692.1,810.7,687
				z"/>
		</g>
	</g>
	<g>
		<path class="st88" d="M914.3,655.9c-4-2.1-2.1-6.5-5.3-8.3c-4.2-2.3-8.9-0.2-13.4,2.9c-3.6,2.5-6.9,6.5-9.6,8.8
			c-1,0.8-2,1.6-2.6,1.1c3.8-10.6,19-20.5,27.9-15.1C913.4,646.7,917.7,652.6,914.3,655.9z"/>
	</g>
	<g>
		<path class="st45" d="M792.9,643.9c-1.8,5.5,1.5,33-4.5,36.2c-1.5,0.8-11.8,0.1-12.8-1.5c-1.2-1.9,3.8-11.2,5.3-13.6
			C785.1,658.3,790.6,649.8,792.9,643.9z"/>
	</g>
	<g>
		<path class="st89" d="M835.2,629.9c-9.6-3.8-23-7.3-35.4-3.8c-1-2.3,5.1-6.6,8.3-7.5c4-1.2,10.4-1.3,14.3,0
			C828.4,620.6,835.6,625.9,835.2,629.9z"/>
	</g>
	<g>
		<defs>
			<path id="SVGID_91_" d="M881.9,597.5c-16.2,5.9-32.6,18.1-55.8,18.1c-13.4,0-37.4-6.7-39.2-20.4c-2.3-17.6,17.2-28.1,28.7-33.2
				c15.5-6.8,35.2-9.4,50.5-11.3c11.1-1.4,22.2-0.4,29.4,4.5c0.7,0.5,2.8,1.3,3.8,2.3c1.5,1.5,0.6,2.6,2.3,3
				c0.7,0.2,4.8-1.1,7.5-1.5c40.7-5.8,66.5,26.6,79.9,52.8c2.3,4.4,5.2,8.9,6.8,12.8c4.1,10,6.9,23.4,8.3,35.4
				c3.2,27.2-2.4,55.9-5.3,80.7c-1.9,16.3-4.1,34.9-0.8,49c4.1,17.1,16.4,32.3,24.9,48.3c4.3,8,7.6,16.9,11.3,25.6
				c3.6,8.5,7.7,16.8,10.6,25.6c9.3,28.9,16.2,74.2,12.1,114.6c-2.2,21.7-8.6,34.8-24.1,44.5c-13.9,8.7-38.3,10.5-57.3,3
				c-9.1-3.6-25.8-16.5-27.9-26.4c-1.3-6-0.2-12.9,0-20.4c0.8-34.9,3.8-70.9,1.5-106.3c-0.8-13.4-1.5-25.2-6.8-36.2
				c-2.1-4.3-5.2-8-8.3-12.1c-3-3.9-5.4-8.3-9.1-11.3c-9.2-8-23.5-10.8-30.2-19.6c-12.1-15.9-7.2-50.4-5.3-76.2
				c0.5-6.9,1.8-16.3,2.3-26.4c0.4-9.2-1.3-24.5,0.8-27.9c1.4-2.4,0.8-0.4,3.8-1.5c10.3-3.9,27-16.6,24.9-33.9
				c-1.6-13.4-14.5-17.8-25.6-13.6c-4.8,1.8-7.9,5.2-12.1,9c-2.6,2.4-2.7,4.1-5.3,3.8c-3.5-0.5-9.8-9.5-10.6-13.6
				c-1.3-6.6,0.5-14.5,2.3-19.6C872.7,610.6,878.5,604,881.9,597.5z M793.6,589.2c3.3-12.2,22.6-23.1,32.4-27.9c3.1,0.7,0.2-2.3,0,0
				c-13.9,4.4-37.5,15.2-36.2,32.4c0.3,3.9,3.2,8.8,6,9.1C792.7,599.2,792.4,593.9,793.6,589.2z"/>
		</defs>
		<linearGradient id="SVGID_92_" gradientUnits="userSpaceOnUse" x1="922.3337" y1="1056.1405" x2="922.3337" y2="550.1683">
			<stop  offset="0" style="stop-color:#823331"/>
			<stop  offset="1" style="stop-color:#9D4D3F"/>
		</linearGradient>
		<use xlink:href="#SVGID_91_"  style="overflow:visible;fill-rule:evenodd;clip-rule:evenodd;fill:url(#SVGID_92_);"/>
		<clipPath id="SVGID_93_">
			<use xlink:href="#SVGID_91_"  style="overflow:visible;"/>
		</clipPath>
		<g class="st90">
			<path class="st5" d="M839.9,554.8c0.9,3.5,1,7.5,2.3,9.8c4.6,8.4,17.9,9.8,21.9,9.8c7.2,0.1,15.8-4.5,27.9-3
				c7.2,0.9,13,6.3,25.6,5.3c9.1-0.7,16.3-4.9,22.6-9c2.5-1.6,5.3-2.6,6.8-3.8c11.1-9,13.5-22.6,25.6-27.2c10.7-4,3.3,15.9,1.5,19.6
				c-8,16.6-27.8,34.5-52.8,36.2c-15.9,1.1-25.3-7.8-34.7-9c-8.1-1.1-16.5,1.7-25.6,0.8c-9.1-1-25-8.1-26.4-18.1
				C833.9,560.7,835,557.3,839.9,554.8z"/>
			<path class="st5" d="M1102.4,839.8c0.1,3.1-3,2.8-4.5,3.8c-1.3,0.8-5.2,2.8-5.3,3c-1.5,2.3,0.1,6.2-1.5,9.8
				c-0.5,1.1-4.4,6.1-6,7.5c-0.7,0.6-2.3,0.9-3,1.5c-3.2,2.9-5.9,6.1-9,8.3c-6.9,4.8-15.4,9.2-22.6,12.8c-8.5,4.3-16.8,7.2-25.6,9.8
				c-9.2,2.7-18.6,5.5-29.4,5.3c-6.3-0.1-14.2-1.6-21.9-3c-6.6-1.2-13.2-2.6-19.6-4.5c-10.9-3.3-28.2-11.3-24.1-24.1
				c0.2-0.6,4.1-4.8,6-5.3c4-1,8.3,1,12.8,2.3c19.1,5.3,43.7,9.8,64.9,3c7.7-2.5,14.4-6.6,20.4-9.8c3.6-1.9,6.8-3.2,9.8-5.3
				c5.8-3.9,10.8-8.8,16.6-13.6c6.4-5.3,19.2-12.6,27.9-4.5c1.9,1.8,2.6,4.4,3,4.5C1093.1,841.9,1098.2,837.4,1102.4,839.8z"/>
		</g>
		<radialGradient id="SVGID_94_" cx="1077.62" cy="804.8288" r="287.0081" gradientUnits="userSpaceOnUse">
			<stop  offset="0" style="stop-color:#000000"/>
			<stop  offset="1" style="stop-color:#808080"/>
		</radialGradient>
		<path class="st91" d="M1364.6,804.8c0,158.5-128.5,287-287,287c-158.5,0-287-128.5-287-287c0-158.5,128.5-287,287-287
			C1236.1,517.8,1364.6,646.3,1364.6,804.8z"/>
		<g class="st92">
			<path class="st3" d="M919.8,548.2c1.1,0.1,6.2-0.7,5.3,6.8c-0.4,3.7-18.6,17.5-27.2,12.1c-2.4-1.5-6.8-10.4-3-12.8
				c2.2-1.4,4.1,2.7,5.3,3c2.6,0.6,5.8-1.9,9.8-4.5C913.1,550.7,914.9,547.9,919.8,548.2z"/>
			<path class="st3" d="M791.6,604.8c-0.1-2.8,3.7,0.4,5.3,0.8c10,2.4,23.4,4,36.2,3c7.1-0.6,14.9-2,21.9-4.5c1.9-0.7,3.3-2.2,5.3-3
				c9.1-3.6,17.8-5.8,24.9-9.8c0.5,2.1-1.4,3.8-3,6c-1.3,1.7-2.2,4.8-3.8,6c-2.6,2.1-7.7,3.2-11.3,4.5c-3.9,1.4-8.4,2-12.1,3.8
				c-2.2,1.1-3.7,3.6-6,4.5c-3.8,1.6-12.6,1.9-18.9,1.5C816.2,616.6,799.8,611.1,791.6,604.8z"/>
			<path class="st3" d="M888.1,687.7c1-3.5,5.3-3.1,7.5-3.8c4.8-1.4,9-1.9,12.8-4.5c6-4.1,18.3-21.3,6.8-29.4
				c-3.9-2.7-9.5-0.7-9.8-4.5c-0.5-5.5,9.2-3.9,13.6-0.8c3.9,2.8,7.9,10.1,6.8,18.9c-0.6,4.8-5.9,14.4-9.8,18.1
				c-3.6,3.4-10.8,6.8-16.6,7.5C896.1,689.6,891.3,690.2,888.1,687.7z"/>
			<path class="st3" d="M1003.5,785.7c-0.5-1.4-4.4-9.9-5.3-14.3c-1.3-6.3-2.1-11.1,4.5-11.3c3.4-0.1,6.1,1.5,6.8,3.8
				c1.1,3.5-1.8,5.6-3,8.3c-1.6,3.5-3.6,5.7-3,11.3c0.3,3,2.6,9,4.5,11.3c3.7,4.4,13.7,7.9,21.1,9.8c5.8,1.5,10.9,1.7,13.6,5.3
				c8.2,11.1-5,26.8-19.6,18.9c-5.2-2.8-8.2-12.9-11.3-20.4C1008.4,800.3,1006.4,794.2,1003.5,785.7z"/>
		</g>
	</g>
	<g>
		<linearGradient id="SVGID_95_" gradientUnits="userSpaceOnUse" x1="900.4345" y1="1060.7168" x2="900.4345" y2="546.2932">
			<stop  offset="0" style="stop-color:#7C2220"/>
			<stop  offset="1" style="stop-color:#973B2B"/>
		</linearGradient>
		<path class="st93" d="M892,687.5c-2.2,14.2-4.2,32-6,49.8c-2.8,26.3-8.6,54.5,1.5,74.7c6.9,13.8,24.4,14.2,34.7,25.6
			c-2.9,0.5-4.6-2.6-6.8-3.8c-1.3-0.7-3.2-0.9-4.5-1.5c-10.4-4.9-22.8-12-27.9-23.4c-8.1-18-2.6-47.2,0-72.4
			c1.4-13.7,3-26.1,5.3-38.5C888.9,694.3,888.6,689.3,892,687.5z"/>
		<linearGradient id="SVGID_96_" gradientUnits="userSpaceOnUse" x1="1002.0094" y1="1060.7214" x2="1002.0094" y2="546.3338">
			<stop  offset="0" style="stop-color:#7C2220"/>
			<stop  offset="1" style="stop-color:#973B2B"/>
		</linearGradient>
		<path class="st94" d="M965.9,1044.2c3.1,0.1,5.8,2.3,9.1,3.8c12.9,5.9,35.9,12.7,52,4.5c7.4-3.8,12-11.5,15.8-18.9
			c4-7.8,6.3-16.7,6.8-27.2c3,0.5,2,5,2.3,8.3c1.8-5.3,0.3-13.8,0.7-20.4c3,2.9,3.5,7,3.8,10.6c1.4,19.9-10.7,39.3-24.9,49
			c-9.4,6.4-22,12.4-40,10.6c-5-0.5-9.7-2.6-14.3-4.5c-10.3-4.3-17-9.7-23.4-18.9c-3.2-4.6-7.5-10.5-6-16.6c2.4,0.2,1.7,3.3,2.3,4.5
			c9,21.5,32.5,38.7,64.9,30.2C994.2,1058.6,977.4,1054.1,965.9,1044.2z"/>
	</g>
	<g>
		<path class="st95" d="M808.7,634.9c4-1.8,7.5,1.4,13.6,3.8c5.8,2.3,15.8,2.7,9.8,7.5c-1.5,1.2-7.3,3.9-9.8,4.5
			c-0.6,0.2-14.9,2.2-15.8,1.5c-2.8-2-1.7-14.6,0-16.6C807,635,807.7,635.3,808.7,634.9z"/>
	</g>
	<g>
		<path class="st96" d="M835.9,645.3c-5-0.9-6.6-2.9-11.3-4.5c-0.2-0.1-11.4-3.4-12.1-3c-2.9,1.7-0.3,15.7-6,15.1
			c-5.7-0.6-1.5-13.2-3.8-17.3c-0.3-0.6-2.3-1.1-0.8-1.5c-0.7-1.1,1.3-2.3,2.3-2.3c4,0.3,11,3,17.3,5.3
			C827.9,639.2,835,641.2,835.9,645.3z"/>
	</g>
	<g>
		<defs>
			<path id="SVGID_97_" d="M792.9,643.9c-1.8,5.5,1.5,33-4.5,36.2c-1.5,0.8-11.8,0.1-12.8-1.5c-1.2-1.9,3.8-11.2,5.3-13.6
				C785.1,658.3,790.6,649.8,792.9,643.9z"/>
		</defs>
		<clipPath id="SVGID_98_">
			<use xlink:href="#SVGID_97_"  style="overflow:visible;"/>
		</clipPath>
		
			<radialGradient id="SVGID_99_" cx="478.9644" cy="695.8434" r="47.9861" gradientTransform="matrix(0.6496 -0.2383 0.2356 0.6423 307.5653 350.0425)" gradientUnits="userSpaceOnUse">
			<stop  offset="0" style="stop-color:#F0806B"/>
			<stop  offset="1" style="stop-color:#FFFFFF"/>
		</radialGradient>
		<path class="st97" d="M813.8,671.4c6.2,17-2.7,35.9-19.9,42.3c-17.2,6.3-36.2-2.4-42.5-19.4c-6.2-17,2.6-35.9,19.9-42.3
			C788.6,645.7,807.6,654.4,813.8,671.4z"/>
	</g>
	<radialGradient id="SVGID_100_" cx="839.9016" cy="682.6364" r="28.5917" gradientUnits="userSpaceOnUse">
		<stop  offset="0.544" style="stop-color:#FFA8B4"/>
		<stop  offset="0.6251" style="stop-color:#FFAFBA"/>
		<stop  offset="0.7469" style="stop-color:#FFC4CC"/>
		<stop  offset="0.8935" style="stop-color:#FFE5E9"/>
		<stop  offset="0.989" style="stop-color:#FFFFFF"/>
	</radialGradient>
	<path class="st98" d="M868.5,682.6c0,15.8-12.8,28.6-28.6,28.6c-15.8,0-28.6-12.8-28.6-28.6c0-15.8,12.8-28.6,28.6-28.6
		C855.7,654,868.5,666.8,868.5,682.6z"/>
	<g class="st99">
		<radialGradient id="SVGID_101_" cx="1201.4764" cy="1085.0439" r="82.886" gradientUnits="userSpaceOnUse">
			<stop  offset="0" style="stop-color:#FFFFFF"/>
			<stop  offset="0.1108" style="stop-color:#EDEDED"/>
			<stop  offset="0.5102" style="stop-color:#B3B3B3"/>
			<stop  offset="0.8053" style="stop-color:#8E8E8E"/>
			<stop  offset="0.9615" style="stop-color:#808080"/>
		</radialGradient>
		<path class="st100" d="M1201.5,1002.2c45.8,0,82.9,37.1,82.9,82.9s-37.1,82.9-82.9,82.9c-45.8,0-82.9-37.1-82.9-82.9
			S1155.7,1002.2,1201.5,1002.2z"/>
	</g>
	<g>
		<path class="st5" d="M1212.3,1055.4c13.2,0,23.9,10.7,23.9,23.9c0,13.2-10.7,23.9-23.9,23.9c-13.2,0-23.9-10.7-23.9-23.9
			C1188.3,1066.1,1199.1,1055.4,1212.3,1055.4z"/>
	</g>
	<g class="st99">
		<radialGradient id="SVGID_102_" cx="1657.8783" cy="602.7752" r="65.0188" gradientUnits="userSpaceOnUse">
			<stop  offset="0" style="stop-color:#FFFFFF"/>
			<stop  offset="0.1108" style="stop-color:#EDEDED"/>
			<stop  offset="0.5102" style="stop-color:#B3B3B3"/>
			<stop  offset="0.8053" style="stop-color:#8E8E8E"/>
			<stop  offset="0.9615" style="stop-color:#808080"/>
		</radialGradient>
		<path class="st101" d="M1657.9,537.8c35.9,0,65,29.1,65,65c0,35.9-29.1,65-65,65c-35.9,0-65-29.1-65-65
			C1592.9,566.9,1622,537.8,1657.9,537.8z"/>
	</g>
	<g>
		<path class="st5" d="M385.9,1157.4c10.4,0,18.8,8.4,18.8,18.8c0,10.4-8.4,18.8-18.8,18.8c-10.4,0-18.8-8.4-18.8-18.8
			C367.1,1165.8,375.5,1157.4,385.9,1157.4z"/>
	</g>
	<g class="st99">
		<radialGradient id="SVGID_103_" cx="1072.0471" cy="666.3755" r="48.5253" gradientUnits="userSpaceOnUse">
			<stop  offset="0" style="stop-color:#FFFFFF"/>
			<stop  offset="0.1108" style="stop-color:#EDEDED"/>
			<stop  offset="0.5102" style="stop-color:#B3B3B3"/>
			<stop  offset="0.8053" style="stop-color:#8E8E8E"/>
			<stop  offset="0.9615" style="stop-color:#808080"/>
		</radialGradient>
		<path class="st102" d="M1072,617.8c26.8,0,48.5,21.7,48.5,48.5s-21.7,48.5-48.5,48.5c-26.8,0-48.5-21.7-48.5-48.5
			S1045.2,617.8,1072,617.8z"/>
	</g>
	<g>
		<path class="st5" d="M1078.4,649c7.7,0,14,6.3,14,14c0,7.7-6.3,14-14,14c-7.7,0-14-6.3-14-14C1064.4,655.3,1070.6,649,1078.4,649z
			"/>
	</g>
	<g>
		<path class="st103" d="M307.5,433.5H150.6c-9.9,0-15.7,8.1-12.8,18l43.3,150.1c2.9,9.9,13.3,18,23.2,18h156.9
			c9.9,0,15.7-8.1,12.8-18l-43.3-150.1C327.9,441.7,317.4,433.5,307.5,433.5L307.5,433.5z"/>
	</g>
	<g>
		<path class="st104" d="M579.9,332h-73.4c-4.6,0-7.3,3.8-6,8.4l20.3,70.2c1.3,4.6,6.2,8.4,10.9,8.4H605c4.6,0,7.3-3.8,6-8.4
			l-20.3-70.2C589.4,335.8,584.6,332,579.9,332L579.9,332z"/>
	</g>
</g>
</svg>
